<?xml version="1.0" encoding="UTF-8"?>
<svg id="Layer_2" data-name="Layer 2" xmlns="http://www.w3.org/2000/svg" version="1.1" viewBox="0 0 340.54 500">
  <defs>
    <style>
      .cls-1 {
        fill: #000;
        stroke-width: 0px;
      }
    </style>
  </defs>
  <g id="XX6qmy.tif">
    <g>
      <path class="cls-1" d="M260.16,141.21c-8.35-.93-16.45-1.7-24.5-2.77-12.5-1.66-24.97-3.57-36.98-7.61-4.83-1.62-9.48-3.65-13.53-6.84-9.05-7.12-10.44-18.83-3.37-27.96,3.62-4.68,8.26-8.11,13.31-11.06,9.81-5.73,20.42-9.59,31.13-13.2,23.14-7.81,46.77-13.81,70.53-19.36,7.57-1.77,15.17-3.46,22.75-5.19.32-.07.64-.1,1.14-.18-1,9.9-1.98,19.65-2.95,29.37-34.16,8.14-68.37,15.62-100.99,28.64,0,.12,0,.25,0,.37,2.2.48,4.37,1.09,6.59,1.43,8.61,1.34,17.22,2.76,25.86,3.83,8.49,1.05,17.02,1.8,25.55,2.49,8.37.67,16.75,1.11,25.13,1.63,4.56.28,9.13.53,13.86.8-.23,2.5-.45,4.94-.69,7.36-.56,5.61-1.12,11.21-1.69,16.82-.22,2.15-.5,4.3-.63,6.45-.06,1.05-.55,1.51-1.43,1.93-9.04,4.33-18.13,8.57-27.09,13.08-25.77,12.99-51.59,25.89-77.17,39.23-17.33,9.04-34.3,18.78-51.43,28.22-.33.18-.63.39-1.22.76,1.35.15,2.41.28,3.47.37,9.41.88,18.83,1.63,28.22,2.65,11.28,1.23,22.58,2.44,33.8,4.1,11.46,1.69,22.84,3.93,34.26,5.92,3.2.56,6.3,0,9.42-.76,25.97-6.43,51.96-12.82,77.94-19.22.33-.08.66-.13,1.08-.21v29.74c-14.52,3.3-29.13,6.61-43.92,9.97.43.7.76,1.22,1.07,1.75,4.14,7.29,3.71,14.5-.5,21.56-3.23,5.42-8.08,9.22-13.35,12.47-8.74,5.38-18.26,9-27.93,12.28-19.51,6.63-39.33,12.15-59.33,17.05-19.68,4.82-39.47,9.11-59.4,12.76-16.48,3.02-32.97,5.98-49.46,8.9-11.33,2-22.68,3.95-34.04,5.77-11.91,1.91-23.85,3.65-35.77,5.45-5.65.85-11.31,1.65-16.97,2.47-.28.04-.58,0-.93,0v-27.71c3.01-.51,6.01-1.04,9.01-1.53,9.23-1.51,18.46-3.02,27.69-4.49,8.27-1.32,16.56-2.58,24.83-3.92,9.11-1.47,18.21-2.94,27.31-4.49,9.34-1.59,18.69-3.16,28-4.92,12.59-2.38,25.2-4.69,37.7-7.49,16.58-3.72,33.1-7.73,49.57-11.89,15.41-3.89,30.71-8.22,45.71-13.49,4.54-1.59,8.97-3.51,13.45-5.29.38-.15.75-.36,1.46-.72-3.07-.94-5.86-1.68-8.56-2.66-2.54-.91-4.91-.72-7.51-.1-25.09,5.98-50.17,11.98-75.32,17.67-12.66,2.86-25.42,5.31-38.21,7.55-11,1.92-22.08,3.5-33.17,4.82-8.37,1-16.82,1.49-25.27,1.09-6.15-.28-12.23-1.09-17.97-3.54-6.52-2.78-10.82-7.46-12.08-14.58-.89-5,.31-9.67,2.57-14.11,3.19-6.25,7.85-11.33,12.9-16.1,1.2-1.13,2.42-2.25,3.64-3.71-18.08-.73-36.16-1.46-54.42-2.2.13-1.53.23-3.03.37-4.52.83-8.35,1.67-16.69,2.52-25.04.03-.34.18-.68.13-1.01-.38-2.78,1.29-3.9,3.51-5.01,16.69-8.37,33.23-17.02,49.28-26.57,8.47-5.04,16.65-10.58,24.96-15.9.39-.25.75-.55,1.39-1.02-1.82,0-3.36-.09-4.88.02-5.2.36-10.41.63-15.59,1.23-7.86.91-15.71,1.95-23.54,3.15-8.82,1.36-17.61,2.95-26.41,4.45-1.54.26-3.08.55-4.84.87.1-1.28.18-2.44.3-3.59.64-6.28,1.3-12.56,1.95-18.84.2-1.98.41-3.96.56-5.95.05-.67.26-.93.95-1.05,8.56-1.41,17.09-2.95,25.66-4.28,7.19-1.12,14.41-2.14,21.64-2.95,10.75-1.2,21.52-2.27,32.35-1.81,6.53.28,13.02.98,19.07,3.73,5.72,2.6,9.69,6.75,10.97,13.09,1.04,5.15-.16,9.91-2.58,14.45-2.64,4.94-6.37,8.99-10.52,12.65-11.65,10.29-24.8,18.43-38.15,26.26-5.95,3.49-12,6.82-18,10.23-.21.12-.41.26-.92.6.76.05,1.2.08,1.63.1,9.74.5,19.48,1,29.22,1.5,3.6.19,7.2.39,10.8.54.51.02,1.1-.13,1.53-.4,25.47-16.07,51.69-30.87,78.35-44.85,25.03-13.12,50.28-25.85,75.43-38.75.48-.25.96-.49,1.65-.84ZM82.59,275.86c.07.15.14.3.21.45.88,0,1.76.01,2.63,0,8.95-.15,17.85-.92,26.69-2.34,9.19-1.48,18.42-2.77,27.56-4.49,12.42-2.33,24.79-5,37.17-7.53.53-.11,1.04-.28,1.57-.43-.6-.39-1.13-.49-1.68-.55-7.38-.71-14.76-1.45-22.14-2.11-6.8-.61-13.59-1.18-20.4-1.71-6.8-.53-13.61-.97-20.42-1.48-2.11-.16-4.18-.12-6,1.09-8.44,5.61-16.73,11.42-24.36,18.12-.32.28-.56.65-.83.97Z"/>
      <path class="cls-1" d="M207.8,422.89c3.19-.5,6.18-.97,9.31-1.47v5.29c1.53-1.3,2.89-2.69,4.47-3.76,2.6-1.75,5.55-2.34,8.62-1.53,2.77.73,4.19,2.85,4.97,5.4,1.58-1.29,3.05-2.69,4.72-3.78,2.52-1.64,5.33-2.32,8.36-1.73,2.21.43,3.74,1.71,4.72,3.68,1.07,2.14,1.28,4.47,1.29,6.8.04,4.96.03,9.93,0,14.89,0,.99.19,1.77.91,2.5.83.84,1.53,1.81,2.39,2.87h-12.63c.91-1.11,1.81-2.1,2.58-3.18.36-.51.64-1.19.65-1.8.05-5.05.05-10.1.01-15.15,0-1.09-.08-2.21-.32-3.28-.49-2.23-2.06-3.5-4.33-3.58-2.88-.09-5.38.99-7.63,2.68-.27.2-.42.71-.42,1.08.03,5.9.12,11.79.11,17.69,0,1.14.27,2.03,1.05,2.85.77.82,1.46,1.72,2.3,2.72h-12.72c1.1-1.33,2.13-2.53,3.1-3.77.25-.32.51-.76.51-1.15.03-5.43.06-10.86,0-16.29-.05-4.12-2.47-6.37-6.18-5.6-1.7.35-3.29,1.24-4.89,1.98-1.23.57-1.61,1.57-1.58,2.99.1,5.39.07,10.78.01,16.17-.01,1.23.26,2.2,1.15,3.07.75.74,1.36,1.62,2.15,2.58h-12.55c.83-1.02,1.57-2.03,2.42-2.92.67-.7.87-1.46.87-2.4-.03-5.9-.04-11.8,0-17.69,0-1.21-.23-2.2-1.06-3.11-.82-.9-1.5-1.92-2.38-3.06Z"/>
      <path class="cls-1" d="M153.17,450.31c-.3.33-.48.72-.72.76-3.03.57-6.07,1.08-9.11,1.61-.07.01-.15-.05-.27-.09v-5.35c-1.37,1.19-2.68,2.49-4.14,3.56-2.89,2.12-6.18,2.44-9.57,1.59-3.14-.79-5.36-3.51-5.65-7.06-.24-2.95-.2-5.92-.24-8.89-.04-2.63.05-5.26-.04-7.89-.03-.77-.35-1.61-.77-2.28-.71-1.14-1.61-2.16-2.54-3.39,3.16-.49,6.15-.96,9.34-1.46,0,.64,0,1.13,0,1.62.02,6.91-.02,13.82.09,20.73.05,3.36,1.98,5.12,5.31,5.16,2.77.03,5.26-.83,7.4-2.57.47-.38.86-1.17.87-1.78.07-5.43.06-10.86.01-16.28,0-.62-.28-1.31-.63-1.83-.79-1.18-1.71-2.28-2.72-3.6,3.19-.5,6.18-.97,9.35-1.47,0,.57,0,1.02,0,1.48,0,7.55,0,15.1,0,22.65q0,4.06,4.05,4.77Z"/>
      <path class="cls-1" d="M194.29,452.78v-5.55c-1.38,1.19-2.73,2.52-4.24,3.63-2.61,1.92-5.61,2.31-8.72,1.72-3.77-.72-6.3-3.56-6.46-7.59-.21-5.04-.22-10.09-.17-15.13.02-1.79-.28-3.3-1.57-4.59-.64-.65-1.13-1.46-1.82-2.36,3.16-.5,6.15-.97,9.35-1.47,0,.57,0,1.01,0,1.46,0,6.36,0,12.72,0,19.09,0,.68,0,1.36.04,2.03.16,2.93,1.87,4.69,4.79,4.9,3.11.22,5.85-.74,8.21-2.73.36-.3.65-.9.66-1.37.04-5.56.04-11.11,0-16.67,0-.5-.24-1.06-.53-1.48-.85-1.21-1.79-2.35-2.87-3.75,3.19-.51,6.2-.98,9.33-1.48,0,.56,0,1.02,0,1.48,0,7.97,0,15.95,0,23.92,0,2.51.61,3.15,3.09,3.32.28.02.55.23.82.36-.18.2-.34.42-.55.58-.12.09-.33.05-.49.08-2.95.53-5.9,1.07-8.89,1.62Z"/>
      <path class="cls-1" d="M80.57,422.09v-11.81h35.36v11.79c-2.08-2.54-4.24-4.78-5.93-7.33-1.84-2.78-4.08-4.06-7.37-3.43-.33.06-.67.04-1.14.07-.04.44-.1.84-.1,1.24,0,11.5-.02,22.99.02,34.49,0,.61.3,1.31.67,1.81.79,1.07,1.73,2.05,2.73,3.21h-13.29c1.13-1.28,2.14-2.4,3.1-3.56.27-.33.51-.8.51-1.21.03-11.79.02-23.59.02-35.38,0-.16-.04-.32-.09-.64-1.79,0-3.56-.07-5.31.05-.43.03-.88.6-1.21,1-2.43,2.94-4.83,5.9-7.25,8.86-.16.19-.32.38-.72.84Z"/>
      <path class="cls-1" d="M169.71,447.23c-.35,2.92-2.99,5.38-5.88,5.68-2.88.3-5.45-1.3-6.28-4.06-.32-1.08-.5-2.24-.51-3.36-.04-10.56-.04-21.12,0-31.68,0-1.04-.25-1.86-.91-2.65-.84-1-1.59-2.07-2.52-3.29,3.17-.48,6.15-.92,9.29-1.39,0,.66,0,1.15,0,1.65,0,11.92,0,23.83,0,35.75,0,.47-.02.94.02,1.4.25,2.91,2.18,4.1,4.88,2.97.61-.25,1.17-.62,1.9-1.01Z"/>
    </g>
  </g>
</svg>