<?xml version="1.0" encoding="UTF-8"?>
<svg id="Layer_2" data-name="Layer 2" xmlns="http://www.w3.org/2000/svg" version="1.1" viewBox="0 0 604.55 500">
  <defs>
    <style>
      .cls-1 {
        fill: #000;
        stroke-width: 0px;
      }
    </style>
  </defs>
  <g>
    <path class="cls-1" d="M56.75,426.3v-45.64h6.52v45.64h-6.52Z"/>
    <path class="cls-1" d="M79.05,426.3v-45.64h5.34l30.19,37.49h-2.8v-37.49h6.52v45.64h-5.35l-30.18-37.49h2.8v37.49h-6.52Z"/>
    <path class="cls-1" d="M134.07,426.3v-45.64h5.34l20.47,34.49h-2.87l20.21-34.49h5.34l.07,45.64h-6.26l-.07-35.79h1.5l-17.99,30.25h-3l-18.13-30.25h1.63v35.79h-6.26Z"/>
    <path class="cls-1" d="M219.03,426.82c-3.48,0-6.7-.59-9.68-1.76s-5.55-2.81-7.72-4.92c-2.18-2.11-3.87-4.57-5.09-7.4-1.22-2.83-1.83-5.91-1.83-9.26s.61-6.43,1.83-9.26c1.22-2.82,2.91-5.29,5.09-7.4,2.17-2.11,4.73-3.75,7.69-4.92s6.19-1.76,9.72-1.76,6.69.58,9.65,1.73,5.52,2.78,7.7,4.89c2.17,2.11,3.86,4.59,5.05,7.43,1.2,2.85,1.79,5.94,1.79,9.29s-.59,6.5-1.79,9.32c-1.19,2.83-2.88,5.29-5.05,7.4-2.18,2.11-4.74,3.74-7.7,4.89-2.96,1.15-6.17,1.73-9.65,1.73ZM218.96,421.02c2.56,0,4.92-.43,7.07-1.3,2.15-.87,4.02-2.09,5.61-3.68s2.82-3.45,3.72-5.58c.89-2.13,1.33-4.46,1.33-6.97s-.44-4.84-1.33-6.94c-.89-2.11-2.13-3.97-3.72-5.58-1.59-1.61-3.46-2.85-5.61-3.71s-4.51-1.3-7.07-1.3-4.86.44-7.01,1.3-4.03,2.11-5.64,3.71c-1.61,1.61-2.86,3.47-3.75,5.58-.89,2.11-1.34,4.42-1.34,6.94s.44,4.85,1.34,6.97c.89,2.13,2.14,3.99,3.75,5.58,1.6,1.59,3.48,2.81,5.64,3.68,2.15.87,4.49,1.3,7.01,1.3Z"/>
    <path class="cls-1" d="M255.28,426.3v-45.64h20.47c5.25,0,9.3,1.05,12.12,3.16s4.24,4.99,4.24,8.64c0,2.48-.55,4.56-1.66,6.26-1.1,1.7-2.6,3-4.47,3.91s-3.89,1.37-6.06,1.37l1.17-1.96c2.61,0,4.91.45,6.91,1.37,2,.91,3.58,2.25,4.76,4.01,1.18,1.76,1.76,3.95,1.76,6.55,0,3.91-1.47,6.94-4.4,9.1-2.94,2.15-7.3,3.23-13.07,3.23h-21.78ZM261.8,421.02h15c3.61,0,6.36-.61,8.28-1.83,1.91-1.22,2.87-3.13,2.87-5.74s-.96-4.59-2.87-5.8c-1.91-1.22-4.67-1.83-8.28-1.83h-15.59v-5.28h13.95c3.3,0,5.86-.61,7.69-1.83,1.83-1.22,2.74-3.04,2.74-5.48s-.92-4.26-2.74-5.48-4.39-1.83-7.69-1.83h-13.37v35.08Z"/>
    <path class="cls-1" d="M306.72,426.3v-45.64h6.52v45.64h-6.52Z"/>
    <path class="cls-1" d="M329.02,426.3v-45.64h6.52v39.97h24.71v5.67h-31.23Z"/>
    <path class="cls-1" d="M369.84,426.3v-45.64h6.52v45.64h-6.52Z"/>
    <path class="cls-1" d="M385.22,426.3l20.67-45.64h6.46l20.73,45.64h-6.85l-18.45-41.99h2.61l-18.45,41.99h-6.72ZM394.03,414.89l1.76-5.22h25.69l1.89,5.22h-29.34Z"/>
    <path class="cls-1" d="M441.95,426.3v-45.64h17.8c5.91,0,10.56,1.4,13.95,4.21s5.09,6.71,5.09,11.7c0,3.3-.76,6.14-2.28,8.51-1.53,2.37-3.7,4.18-6.52,5.45-2.83,1.26-6.24,1.89-10.24,1.89h-14.22l2.94-3v16.89h-6.52ZM448.47,410.06l-2.94-3.19h14.02c4.18,0,7.34-.9,9.49-2.71,2.15-1.8,3.23-4.33,3.23-7.6s-1.08-5.78-3.23-7.56c-2.15-1.78-5.31-2.67-9.49-2.67h-14.02l2.94-3.26v26.99ZM472.46,426.3l-11.61-16.56h6.98l11.74,16.56h-7.11Z"/>
    <path class="cls-1" d="M491.44,426.3v-45.64h6.52v45.64h-6.52Z"/>
    <path class="cls-1" d="M506.82,426.3l20.67-45.64h6.46l20.73,45.64h-6.85l-18.45-41.99h2.61l-18.45,41.99h-6.72ZM515.62,414.89l1.76-5.22h25.69l1.89,5.22h-29.34Z"/>
  </g>
  <g>
    <path class="cls-1" d="M55.98,236.98c34.34.29,51.51,25.39,51.51,50.5s-17.17,50.5-51.51,50.5H0v-101h55.98ZM17.6,322.68h37.66c22.51,0,33.76-17.6,33.76-35.2s-11.25-35.35-33.76-35.35H17.6v70.55Z"/>
    <path class="cls-1" d="M164.19,235.54h17.6l51.36,102.44h-18.76l-8.37-16.45h-66.08l-8.37,16.45h-18.61l51.22-102.44ZM147.6,306.38h50.79l-25.39-49.92-25.4,49.92Z"/>
    <path class="cls-1" d="M247.88,236.98h17.6v42.85h65.65v-42.85h17.75v101h-17.75v-43h-65.65v43h-17.6v-101Z"/>
    <path class="cls-1" d="M414.82,235.54h17.6l51.36,102.44h-18.76l-8.37-16.45h-66.08l-8.37,16.45h-18.61l51.22-102.44ZM398.22,306.38h50.79l-25.4-49.92-25.39,49.92Z"/>
    <path class="cls-1" d="M498.5,236.98h17.6l70.84,78.2v-78.2h17.6v101h-17.6l-70.84-78.2v78.2h-17.6v-101Z"/>
  </g>
  <g>
    <polygon class="cls-1" points="261.64 85.98 239.18 64.74 239.18 202.67 261.64 202.67 261.64 85.98"/>
    <polygon class="cls-1" points="304.62 60.05 282.16 34.09 282.16 202.67 304.62 202.67 304.62 60.05"/>
    <g>
      <path class="cls-1" d="M363.62,114.18c-10.86-26-32.99-38.79-38.47-41.77v41.77h38.47Z"/>
      <g>
        <path class="cls-1" d="M368.09,157.32c1.65-8.79,1.98-18.49-.07-28.76h-42.87v28.76h42.94Z"/>
        <path class="cls-1" d="M325.15,171.7v30.96h20.38c1.1-1.17,11.79-13.01,18.5-30.96h-38.88Z"/>
      </g>
    </g>
  </g>
</svg>