<?xml version="1.0" encoding="UTF-8"?>
<svg id="Layer_1" data-name="Layer 1" xmlns="http://www.w3.org/2000/svg" version="1.1" viewBox="0 0 736.62 500">
  <defs>
    <style>
      .cls-1 {
        fill: #000;
        stroke-width: 0px;
      }
    </style>
  </defs>
  <g>
    <path class="cls-1" d="M2.94,431.96v-49.47h34.91v6.15H10v37.17h28.83v6.15H2.94ZM9.37,409.84v-6.01h25.44v6.01H9.37Z"/>
    <path class="cls-1" d="M64.41,431.96v-49.47h5.8l22.19,37.38h-3.11l21.91-37.38h5.8l.07,49.47h-6.78l-.07-38.8h1.63l-19.5,32.79h-3.25l-19.65-32.79h1.77v38.8h-6.79Z"/>
    <path class="cls-1" d="M146.03,431.96v-49.47h5.8l22.19,37.38h-3.11l21.91-37.38h5.8l.07,49.47h-6.78l-.07-38.8h1.63l-19.5,32.79h-3.25l-19.65-32.79h1.77v38.8h-6.79Z"/>
    <path class="cls-1" d="M220.16,431.96l22.4-49.47h7l22.47,49.47h-7.42l-20-45.51h2.82l-20,45.51h-7.28ZM229.7,419.59l1.9-5.65h27.84l2.05,5.65h-31.8Z"/>
    <path class="cls-1" d="M338.6,431.96v-18.94l1.62,4.38-21.27-34.91h7.56l17.88,29.47h-4.1l17.95-29.47h7l-21.2,34.91,1.55-4.38v18.94h-6.99Z"/>
    <path class="cls-1" d="M419.64,431.96v-49.47h34.91v6.15h-27.84v37.17h28.83v6.15h-35.9ZM426.08,409.84v-6.01h25.44v6.01h-25.44Z"/>
    <path class="cls-1" d="M481.12,431.96v-49.47h7.07v43.32h26.78v6.15h-33.85Z"/>
    <path class="cls-1" d="M537.23,431.96v-49.47h7.07v49.47h-7.07Z"/>
    <path class="cls-1" d="M587.69,432.53c-3.77,0-7.37-.58-10.81-1.73-3.44-1.15-6.15-2.65-8.13-4.49l2.61-5.51c1.89,1.65,4.29,3.01,7.21,4.1,2.92,1.08,5.96,1.63,9.12,1.63,2.87,0,5.2-.33,7-.99,1.79-.66,3.11-1.56,3.96-2.72.85-1.15,1.28-2.46,1.28-3.92,0-1.7-.55-3.06-1.66-4.1-1.1-1.03-2.54-1.87-4.31-2.51-1.76-.64-3.71-1.19-5.83-1.66s-4.26-1.03-6.4-1.66-4.1-1.45-5.86-2.44c-1.76-.99-3.19-2.32-4.27-3.99-1.09-1.67-1.63-3.83-1.63-6.46s.67-4.89,2.01-7.03c1.34-2.14,3.41-3.86,6.21-5.16s6.38-1.94,10.71-1.94c2.87,0,5.72.38,8.55,1.13,2.82.75,5.28,1.84,7.35,3.25l-2.33,5.65c-2.12-1.41-4.36-2.44-6.71-3.07-2.35-.64-4.64-.95-6.85-.95-2.78,0-5.07.36-6.86,1.06-1.79.71-3.1,1.65-3.92,2.83-.83,1.18-1.24,2.5-1.24,3.96,0,1.74.55,3.13,1.66,4.17,1.1,1.03,2.55,1.86,4.31,2.47,1.76.61,3.71,1.17,5.83,1.66,2.12.49,4.25,1.05,6.39,1.66,2.14.61,4.1,1.41,5.86,2.4,1.77.99,3.19,2.31,4.28,3.96,1.08,1.65,1.63,3.77,1.63,6.36s-.68,4.82-2.05,6.96c-1.36,2.14-3.47,3.86-6.32,5.16-2.85,1.3-6.45,1.94-10.78,1.94Z"/>
    <path class="cls-1" d="M645.7,432.53c-3.77,0-7.37-.58-10.81-1.73-3.44-1.15-6.15-2.65-8.13-4.49l2.61-5.51c1.89,1.65,4.29,3.01,7.21,4.1,2.92,1.08,5.96,1.63,9.12,1.63,2.87,0,5.2-.33,7-.99,1.79-.66,3.11-1.56,3.96-2.72.85-1.15,1.28-2.46,1.28-3.92,0-1.7-.55-3.06-1.66-4.1-1.1-1.03-2.54-1.87-4.31-2.51-1.76-.64-3.71-1.19-5.83-1.66s-4.26-1.03-6.4-1.66-4.1-1.45-5.86-2.44c-1.76-.99-3.19-2.32-4.27-3.99-1.09-1.67-1.63-3.83-1.63-6.46s.67-4.89,2.01-7.03c1.34-2.14,3.41-3.86,6.21-5.16s6.38-1.94,10.71-1.94c2.87,0,5.72.38,8.55,1.13,2.82.75,5.28,1.84,7.35,3.25l-2.33,5.65c-2.12-1.41-4.36-2.44-6.71-3.07-2.35-.64-4.64-.95-6.85-.95-2.78,0-5.07.36-6.86,1.06-1.79.71-3.1,1.65-3.92,2.83-.83,1.18-1.24,2.5-1.24,3.96,0,1.74.55,3.13,1.66,4.17,1.1,1.03,2.55,1.86,4.31,2.47,1.76.61,3.71,1.17,5.83,1.66,2.12.49,4.25,1.05,6.39,1.66,2.14.61,4.1,1.41,5.86,2.4,1.77.99,3.19,2.31,4.28,3.96,1.08,1.65,1.63,3.77,1.63,6.36s-.68,4.82-2.05,6.96c-1.36,2.14-3.47,3.86-6.32,5.16-2.85,1.3-6.45,1.94-10.78,1.94Z"/>
    <path class="cls-1" d="M681.81,431.96l22.4-49.47h7l22.47,49.47h-7.42l-20-45.51h2.82l-20,45.51h-7.28ZM691.36,419.59l1.9-5.65h27.84l2.05,5.65h-31.8Z"/>
  </g>
  <g>
    <path class="cls-1" d="M277.01,160.7c-.75-4.68-1.14-9.47-1.14-14.35,0-49.92,40.61-90.53,90.53-90.53,38.68,0,71.77,24.39,84.71,58.59,2.86-1.03,5.73-1.92,8.63-2.63-14.08-37.89-50.6-64.96-93.34-64.96-54.88,0-99.53,44.65-99.53,99.53,0,5.94.53,11.76,1.53,17.42,2.89-.83,5.76-1.85,8.61-3.07Z"/>
    <path class="cls-1" d="M455.79,132c.75,4.68,1.14,9.47,1.14,14.35,0,49.92-40.61,90.53-90.53,90.53-38.68,0-71.76-24.38-84.71-58.59-2.86,1.03-5.74,1.91-8.63,2.62,14.08,37.89,50.6,64.97,93.34,64.97,54.88,0,99.53-44.65,99.53-99.53,0-5.94-.53-11.76-1.53-17.42-2.89.83-5.76,1.85-8.61,3.07Z"/>
  </g>
  <g>
    <path class="cls-1" d="M191.37,149.53c39.04,25.76,74.8,30.21,112.24-.86,12.55-9.88,23.18-22.03,36.31-31.52,22.08-16.11,43.83-14.21,61.99,6.44,3.66,4.13,6.75,8.62,9.62,13.19.91,1.55-1.12,3.14-2.38,1.82-1.59-1.69-3.79-4.21-5.43-5.8-25.84-26.45-44.46-21.3-69.34,2.68-11.63,11.12-23.69,22.63-37.65,31.1-25.37,15.59-53.67,17-80.3,3.56-9.82-4.91-18.79-11.14-26.88-18.23-1.28-1.24.15-3.38,1.82-2.39h0Z"/>
    <path class="cls-1" d="M541.43,143.17c-39.04-25.76-74.8-30.21-112.24.86-12.55,9.88-23.18,22.03-36.31,31.52-22.08,16.11-43.83,14.21-61.99-6.44-3.66-4.13-6.75-8.62-9.62-13.19-.91-1.55,1.12-3.14,2.38-1.82,1.59,1.69,3.79,4.21,5.43,5.8,25.84,26.45,44.46,21.3,69.34-2.68,11.63-11.12,23.69-22.63,37.65-31.1,25.37-15.59,53.67-17,80.3-3.56,9.82,4.91,18.79,11.14,26.88,18.23,1.28,1.24-.15,3.38-1.82,2.39h0Z"/>
  </g>
</svg>