<?xml version="1.0" encoding="UTF-8"?>
<svg id="Layer_2" data-name="Layer 2" xmlns="http://www.w3.org/2000/svg" version="1.1" viewBox="0 0 369.32 500">
  <defs>
    <style>
      .cls-1 {
        fill: #000;
        stroke-width: 0px;
      }

      .cls-2 {
        fill: none;
        stroke: #000;
        stroke-miterlimit: 10;
        stroke-width: 6.89px;
      }
    </style>
  </defs>
  <g>
    <path class="cls-1" d="M42.7,273.3v-50.7c0-.5.25-.75.75-.75h17.6c4.92,0,8.83,1.3,11.74,3.88,2.91,2.58,4.36,6.09,4.36,10.51v23.41c0,4.43-1.45,7.93-4.36,10.51-2.91,2.58-6.82,3.88-11.74,3.88h-17.6c-.5,0-.75-.25-.75-.75ZM48.29,269.42h12.97c3.23,0,5.8-.94,7.72-2.83,1.91-1.89,2.87-4.42,2.87-7.6v-21.99c0-3.23-.95-5.79-2.83-7.68-1.89-1.89-4.48-2.83-7.75-2.83h-12.97c-.2,0-.3.1-.3.3v42.35c0,.2.1.3.3.3Z"/>
    <path class="cls-1" d="M131.62,226.48h-27.44c-.2,0-.3.1-.3.3v18.42c0,.19.1.3.3.3h19.23c.5,0,.75.25.75.75v3.13c0,.5-.25.75-.75.75h-19.23c-.2,0-.3.1-.3.3v18.71c0,.2.1.3.3.3h27.44c.49,0,.75.25.75.75v3.13c0,.5-.25.75-.75.75h-32.28c-.5,0-.75-.25-.75-.75v-50.7c0-.5.25-.75.75-.75h32.28c.49,0,.75.25.75.75v3.13c0,.5-.25.75-.75.75Z"/>
    <path class="cls-1" d="M155.27,270.84c-3.26-2.54-4.88-5.92-4.88-10.14v-2.31c0-.5.25-.75.75-.75h3.65c.5,0,.75.25.75.75v2.01c0,2.88,1.19,5.21,3.58,6.97,2.38,1.77,5.69,2.65,9.91,2.65,3.83,0,6.73-.81,8.72-2.42,1.98-1.61,2.98-3.76,2.98-6.45,0-1.74-.46-3.23-1.38-4.47-.92-1.24-2.34-2.41-4.25-3.51-1.91-1.09-4.61-2.36-8.09-3.8-3.73-1.49-6.63-2.8-8.68-3.91-2.06-1.12-3.73-2.56-5-4.33-1.27-1.77-1.9-3.99-1.9-6.67,0-4.17,1.46-7.42,4.36-9.73,2.91-2.31,6.89-3.46,11.96-3.46,5.52,0,9.87,1.29,13.04,3.88,3.19,2.58,4.77,6.01,4.77,10.29v1.64c0,.5-.25.75-.75.75h-3.73c-.5,0-.75-.25-.75-.75v-1.34c0-2.88-1.13-5.24-3.39-7.08-2.26-1.84-5.41-2.76-9.43-2.76-3.53,0-6.24.72-8.12,2.16-1.89,1.44-2.83,3.53-2.83,6.26,0,1.79.46,3.27,1.38,4.44.92,1.16,2.24,2.18,3.95,3.05,1.72.87,4.36,2,7.94,3.4,3.63,1.49,6.55,2.88,8.76,4.17,2.21,1.29,4,2.87,5.37,4.73,1.37,1.86,2.05,4.14,2.05,6.82,0,4.17-1.54,7.51-4.62,9.99-3.08,2.49-7.36,3.73-12.83,3.73s-10.05-1.27-13.31-3.8Z"/>
    <path class="cls-1" d="M206.68,273.3v-50.7c0-.5.25-.75.75-.75h3.8c.49,0,.75.25.75.75v50.7c0,.5-.25.75-.75.75h-3.8c-.5,0-.75-.25-.75-.75Z"/>
    <path class="cls-1" d="M242.05,272.59c-2.63-1.37-4.68-3.29-6.15-5.78-1.46-2.48-2.2-5.34-2.2-8.57v-20.58c0-3.23.73-6.09,2.2-8.57,1.47-2.48,3.52-4.41,6.15-5.78,2.63-1.37,5.69-2.05,9.17-2.05s6.47.67,9.14,2.01c2.66,1.34,4.71,3.22,6.15,5.63,1.44,2.41,2.17,5.13,2.17,8.16v.97c0,.5-.25.75-.75.75h-3.8c-.5,0-.75-.25-.75-.75v-.9c0-3.32-1.1-6.04-3.31-8.12-2.21-2.09-5.16-3.13-8.84-3.13s-6.63,1.07-8.87,3.2c-2.23,2.14-3.36,4.95-3.36,8.43v20.88c0,3.48,1.15,6.29,3.43,8.42,2.29,2.14,5.3,3.2,9.02,3.2s6.52-.99,8.69-2.98c2.16-1.99,3.24-4.65,3.24-7.98v-6.78c0-.2-.1-.3-.3-.3h-10.96c-.5,0-.75-.25-.75-.75v-3.13c0-.5.25-.75.75-.75h15.81c.5,0,.75.25.75.75v9.62c0,5.32-1.58,9.47-4.73,12.45-3.16,2.99-7.4,4.47-12.72,4.47-3.48,0-6.53-.68-9.17-2.05Z"/>
    <path class="cls-1" d="M322.07,221.85h3.8c.5,0,.75.25.75.75v50.7c0,.5-.25.75-.75.75h-3.73c-.35,0-.64-.18-.89-.52l-25.42-41.38c-.05-.15-.13-.21-.22-.19-.1.03-.15.12-.15.26l.08,41.08c0,.5-.25.75-.75.75h-3.8c-.5,0-.75-.25-.75-.75v-50.7c0-.5.25-.75.75-.75h3.73c.35,0,.65.18.9.52l25.42,41.38c.05.15.12.21.22.19.1-.02.15-.11.15-.26l-.07-41.08c0-.5.25-.75.75-.75Z"/>
  </g>
  <g>
    <path class="cls-1" d="M73.21,123.93h3.8c.5,0,.75.25.75.75v50.74c0,.5-.25.75-.75.75h-3.8c-.5,0-.75-.25-.75-.75v-22.91c0-.2-.1-.3-.3-.3h-23.81c-.2,0-.3.1-.3.3v22.91c0,.5-.26.75-.75.75h-3.81c-.5,0-.75-.25-.75-.75v-50.74c0-.5.25-.75.75-.75h3.81c.49,0,.75.25.75.75v22.61c0,.19.1.3.3.3h23.81c.19,0,.3-.1.3-.3v-22.61c0-.5.25-.75.75-.75Z"/>
    <path class="cls-1" d="M132.37,174.61c-2.68-1.45-4.76-3.47-6.23-6.08-1.46-2.61-2.2-5.63-2.2-9.07v-18.8c0-3.43.73-6.46,2.2-9.07,1.47-2.61,3.55-4.64,6.23-6.08,2.69-1.44,5.8-2.16,9.33-2.16s6.66.72,9.36,2.16c2.71,1.45,4.8,3.47,6.27,6.08,1.46,2.61,2.2,5.64,2.2,9.07v18.8c0,3.44-.73,6.46-2.2,9.07-1.47,2.62-3.56,4.64-6.27,6.08-2.71,1.45-5.83,2.16-9.36,2.16s-6.64-.72-9.33-2.16ZM150.8,168.78c2.29-2.28,3.44-5.32,3.44-9.1v-19.1c0-3.78-1.15-6.83-3.44-9.15-2.28-2.31-5.32-3.47-9.1-3.47s-6.74,1.15-9.03,3.47c-2.28,2.31-3.43,5.36-3.43,9.15v19.1c0,3.78,1.15,6.82,3.43,9.1,2.29,2.29,5.3,3.44,9.03,3.44s6.82-1.15,9.1-3.44Z"/>
    <path class="cls-1" d="M240.64,123.93h3.88c.5,0,.75.25.75.75v50.74c0,.5-.25.75-.75.75h-3.8c-.5,0-.75-.25-.75-.75v-41.49c0-.15-.05-.25-.15-.3-.1-.05-.18,0-.22.15l-12.16,18.66c-.25.35-.55.52-.89.52h-1.94c-.35,0-.64-.15-.89-.44l-12.16-18.51c-.05-.15-.13-.19-.22-.15-.1.05-.15.15-.15.3v41.26c0,.5-.26.75-.75.75h-3.81c-.5,0-.75-.25-.75-.75v-50.74c0-.5.25-.75.75-.75h3.88c.39,0,.7.15.89.45l14.03,21.27s.12.07.22.07c.1,0,.18-.02.22-.07l13.88-21.19c.25-.35.55-.52.89-.52Z"/>
    <path class="cls-1" d="M325.81,128.56h-27.46c-.2,0-.3.1-.3.3v18.44c0,.19.1.3.3.3h19.25c.5,0,.75.25.75.75v3.13c0,.5-.25.75-.75.75h-19.25c-.2,0-.3.1-.3.3v18.73c0,.2.1.3.3.3h27.46c.49,0,.75.25.75.75v3.13c0,.5-.26.75-.75.75h-32.31c-.5,0-.75-.25-.75-.75v-50.74c0-.5.25-.75.75-.75h32.31c.49,0,.75.25.75.75v3.13c0,.5-.26.75-.75.75Z"/>
  </g>
  <g>
    <path class="cls-1" d="M47.13,372.31c-2.96-2.9-4.43-6.79-4.43-11.67v-26.36c0-4.83,1.47-8.68,4.43-11.55,2.96-2.88,6.87-4.31,11.76-4.31s8.88,1.44,11.84,4.31c2.95,2.87,4.43,6.72,4.43,11.55v.89c0,.27-.1.51-.28.7-.2.19-.42.28-.7.28l-9.51.41c-.65,0-.98-.3-.98-.9v-2.11c0-1.57-.43-2.85-1.3-3.83-.87-.97-2.03-1.46-3.5-1.46s-2.55.49-3.42,1.46c-.87.98-1.3,2.25-1.3,3.83v28.07c0,1.57.43,2.84,1.3,3.78.86.95,2,1.42,3.42,1.42s2.63-.48,3.5-1.42c.87-.95,1.3-2.21,1.3-3.78v-2.2c0-.27.09-.5.29-.69.19-.19.42-.28.69-.28l9.51.4c.27,0,.5.1.7.29.18.19.28.42.28.69v.81c0,4.88-1.49,8.78-4.47,11.67-2.98,2.9-6.92,4.35-11.79,4.35s-8.8-1.45-11.76-4.35ZM47.49,304.51c0-.38.27-.57.81-.57h7.08c.6,0,1,.24,1.22.73l2.44,4.56c.16.21.33.21.49,0l2.44-4.56c.27-.48.65-.73,1.14-.73h7.16c.38,0,.64.09.78.28.13.19.09.48-.12.86l-5.37,8.46c-.27.44-.65.65-1.14.65h-10.49c-.54,0-.92-.21-1.14-.65l-5.12-8.46c-.11-.32-.16-.51-.16-.57Z"/>
    <path class="cls-1" d="M112.58,328.63c-.2.19-.42.28-.7.28h-17c-.27,0-.4.14-.4.41v12.85c0,.27.13.41.4.41h9.77c.27,0,.5.09.69.28.19.2.28.42.28.7v7.89c0,.27-.09.5-.28.69s-.42.29-.69.29h-9.77c-.27,0-.4.13-.4.4v12.94c0,.27.13.4.4.4h17c.27,0,.5.1.7.29.19.19.28.42.28.69v7.89c0,.27-.09.5-.28.69-.2.2-.42.29-.7.29h-27.9c-.27,0-.5-.09-.69-.29-.19-.19-.28-.42-.28-.69v-54.99c0-.27.09-.5.28-.69.19-.19.42-.28.69-.28h27.9c.27,0,.5.09.7.28.19.19.28.42.28.69v7.9c0,.27-.09.5-.28.69Z"/>
    <path class="cls-1" d="M127.4,374.79c-2.39-1.25-4.23-2.99-5.53-5.24-1.3-2.25-1.96-4.84-1.96-7.77v-2.36c0-.27.1-.5.29-.69.19-.19.42-.28.69-.28h9.36c.27,0,.5.09.69.28.19.19.29.42.29.69v1.79c0,1.68.43,3.04,1.3,4.07.87,1.03,1.95,1.55,3.25,1.55s2.39-.49,3.26-1.47c.87-.98,1.3-2.25,1.3-3.83s-.54-3.02-1.63-4.19c-1.08-1.17-3.2-2.89-6.34-5.16-2.71-1.96-4.91-3.69-6.59-5.21-1.68-1.52-3.12-3.39-4.31-5.62-1.19-2.22-1.79-4.8-1.79-7.73,0-4.61,1.44-8.29,4.31-11.06,2.87-2.77,6.67-4.15,11.39-4.15s8.6,1.44,11.51,4.31c2.9,2.87,4.35,6.64,4.35,11.31v1.95c0,.27-.09.51-.28.7-.19.19-.42.28-.69.28h-9.36c-.27,0-.5-.09-.69-.28-.19-.19-.29-.42-.29-.7v-2.19c0-1.68-.42-3.02-1.26-4.03-.84-1-1.94-1.5-3.29-1.5s-2.36.48-3.18,1.42c-.81.95-1.22,2.26-1.22,3.94s.51,3.07,1.55,4.31c1.03,1.25,3.06,2.98,6.1,5.21,3.36,2.49,5.9,4.52,7.61,6.06,1.7,1.55,3.04,3.25,3.98,5.12.95,1.88,1.42,4.11,1.42,6.72,0,4.77-1.47,8.57-4.39,11.38-2.93,2.82-6.78,4.23-11.55,4.23-3.15,0-5.92-.62-8.3-1.87Z"/>
    <path class="cls-1" d="M191.81,319.35c.19.19.29.42.29.69v7.9c0,.27-.1.5-.29.69-.19.19-.42.28-.69.28h-10.17c-.27,0-.41.14-.41.41v45.72c0,.27-.09.5-.28.69-.2.2-.42.29-.7.29h-9.51c-.27,0-.5-.09-.69-.29-.19-.19-.29-.42-.29-.69v-45.72c0-.27-.13-.41-.4-.41h-9.77c-.27,0-.5-.09-.69-.28s-.29-.42-.29-.69v-7.9c0-.27.1-.5.29-.69.19-.19.42-.28.69-.28h32.22c.27,0,.5.09.69.28Z"/>
    <path class="cls-1" d="M199.94,375.73c-.19-.19-.28-.42-.28-.69v-54.99c0-.27.09-.5.28-.69.19-.19.42-.28.69-.28h9.52c.27,0,.5.09.69.28.19.19.29.42.29.69v45.72c0,.27.13.4.4.4h17.09c.27,0,.5.1.69.29s.29.42.29.69v7.89c0,.27-.1.5-.29.69-.19.2-.42.29-.69.29h-27.99c-.27,0-.5-.09-.69-.29Z"/>
    <path class="cls-1" d="M237.05,375.73c-.19-.19-.28-.42-.28-.69v-54.99c0-.27.09-.5.28-.69s.42-.28.69-.28h9.52c.27,0,.5.09.69.28.19.19.29.42.29.69v54.99c0,.27-.1.5-.29.69-.19.2-.42.29-.69.29h-9.52c-.27,0-.5-.09-.69-.29Z"/>
    <path class="cls-1" d="M260.87,372.31c-2.96-2.9-4.43-6.79-4.43-11.67v-26.36c0-4.83,1.47-8.68,4.43-11.55,2.96-2.88,6.87-4.31,11.76-4.31s8.88,1.44,11.84,4.31c2.95,2.87,4.43,6.72,4.43,11.55v.89c0,.27-.1.51-.28.7-.2.19-.42.28-.7.28l-9.51.41c-.65,0-.98-.3-.98-.9v-2.11c0-1.57-.43-2.85-1.3-3.83-.87-.97-2.03-1.46-3.5-1.46s-2.55.49-3.42,1.46c-.87.98-1.3,2.25-1.3,3.83v28.07c0,1.57.43,2.84,1.3,3.78.86.95,2,1.42,3.42,1.42s2.63-.48,3.5-1.42c.87-.95,1.3-2.21,1.3-3.78v-2.2c0-.27.09-.5.29-.69.19-.19.42-.28.69-.28l9.51.4c.27,0,.5.1.7.29.18.19.28.42.28.69v.81c0,4.88-1.49,8.78-4.47,11.67-2.98,2.9-6.92,4.35-11.79,4.35s-8.8-1.45-11.76-4.35Z"/>
    <path class="cls-1" d="M326.34,328.63c-.2.19-.42.28-.7.28h-17c-.27,0-.4.14-.4.41v12.85c0,.27.13.41.4.41h9.77c.27,0,.5.09.69.28.19.2.28.42.28.7v7.89c0,.27-.09.5-.28.69-.19.19-.42.29-.69.29h-9.77c-.27,0-.4.13-.4.4v12.94c0,.27.13.4.4.4h17c.27,0,.5.1.7.29.19.19.28.42.28.69v7.89c0,.27-.09.5-.28.69-.2.2-.42.29-.7.29h-27.9c-.27,0-.5-.09-.69-.29-.19-.19-.28-.42-.28-.69v-54.99c0-.27.09-.5.28-.69.19-.19.42-.28.69-.28h27.9c.27,0,.5.09.7.28.19.19.28.42.28.69v7.9c0,.27-.09.5-.28.69Z"/>
  </g>
  <rect class="cls-2" x="4.26" y="69.6" width="360.8" height="360.8"/>
</svg>