<?xml version="1.0" encoding="UTF-8"?>
<svg id="Layer_2" data-name="Layer 2" xmlns="http://www.w3.org/2000/svg" version="1.1" viewBox="0 0 738.64 500">
  <defs>
    <style>
      .cls-1 {
        fill: #000;
        stroke-width: 0px;
      }
    </style>
  </defs>
  <g id="Layer_2-2" data-name="Layer 2">
    <g id="Alpha">
      <path class="cls-1" d="M586.36,377.61l7.26-14.64,7.32,14.64h-14.58ZM591.61,360.38l-13.99,27.21h3.66l3.54-7.08h17.71l3.54,7.08h3.72l-14.17-27.27-4.01.06ZM539.61,360.38h-4.31l14.05,16.23v10.98h3.31v-10.98l14.05-16.29h-4.31l-11.39,13.28-11.39-13.22ZM371.97,377.61l7.32-14.64,7.32,14.64h-14.64ZM377.29,360.38l-13.99,27.21h3.72l3.54-7.08h17.71l3.54,7.08h3.72l-14.23-27.27-4.01.06ZM332.9,363.33c4.78,0,8.32.65,8.32,4.6s-3.54,4.72-8.32,4.72h-11.81v-9.33h11.81ZM333.67,360.38h-15.7v27.21h3.31v-11.81h10.68l8.74,11.81h4.07l-8.97-11.81c4.39.33,8.22-2.95,8.55-7.34,0-.05,0-.1.01-.15,0-6.67-6.32-7.61-10.68-7.61M251.8,360.32h-3.31v27.21h3.31v-27.21ZM202.39,360.32h-3.66l14.05,27.21h3.25l14.05-27.21h-3.6l-11.81,23.61-12.28-23.61ZM180.32,360.32h-3.31v27.21h3.31v-27.21ZM103.58,279.1h19.66V113.71h-5.31v157.31L19.65,114.3l-.35-.59H1.05v165.27h5.31V125.22l96.98,153.47.24.41ZM143.6,372.6h-11.81v-9.27h11.81c4.78,0,8.32.65,8.32,4.6s-3.54,4.72-8.32,4.72M155.41,387.59l-8.97-11.81c4.39.33,8.22-2.95,8.55-7.34,0-.05,0-.1.01-.15.18-6.97-6.37-7.97-10.51-7.97h-15.7v27.21h3.31v-11.81h10.62l8.74,11.81,3.95.06ZM236.51,210.1h-38.72l18.95-81.99,19.77,81.99ZM253.27,279.16h17.71l-39.72-165.75v-1h-16.23l-38.78,166.75h5.43l14.93-63.75h41.32l15.35,63.75ZM273.87,387.59h24.67v-2.89h-21.37v-9.8h17.71v-2.77h-17.71v-8.79h20.95v-3.01h-24.26v27.27ZM449.65,195.81c0,54.01-36.42,79.15-61.09,79.15-36.18,0-61.8-41.73-62.1-79.15-.16-22.69,8.28-44.6,23.61-61.33,9.83-10.41,23.46-16.42,37.78-16.65h0c13.87.25,27.05,6.05,36.6,16.11,15.9,16.71,24.9,38.8,25.2,61.86M470.84,197.23c-.62-19.31-7.38-37.92-19.3-53.12-15.04-19.71-38.61-31.01-63.39-30.4-24.25-.8-47.52,9.61-63.1,28.21-12.77,15.59-19.86,35.04-20.13,55.19.71,19.08,7.64,37.4,19.71,52.18,15.4,19.21,38.89,30.13,63.51,29.51,56.96,0,82.64-47.93,82.64-81.93M470.19,387.24h3.07v-26.92h-5.08l-10.03,22.9-10.15-22.9h-5.08v27.21h3.01v-24.2h0l10.74,24.26h2.77l10.62-24.26h0l.12,23.91ZM515.7,377.26h-14.58l7.56-14.28,7.02,14.28ZM524.38,387.24l-13.93-26.92h-4.07l-13.99,27.21h3.66l3.54-7.08h17.71l3.48,7.08,3.6-.3ZM650.34,279.16h16.94V113.71h-16.94l-58.26,157.13-61.51-156.36-.35-.77h-17.12v165.27h5.31v-145.85l59.03,146.03h17.71l-.41-1.06,55.6-144.26v145.32ZM737.58,113.89h-17.29v165.27h17.29V113.89Z"/>
    </g>
  </g>
</svg>