<?xml version="1.0" encoding="UTF-8"?>
<svg id="Layer_2" data-name="Layer 2" xmlns="http://www.w3.org/2000/svg" version="1.1" viewBox="0 0 590.91 500">
  <defs>
    <style>
      .cls-1 {
        fill: #000;
        stroke-width: 0px;
      }
    </style>
  </defs>
  <path class="cls-1" d="M133.59,196.33c-2.46.84-5.69,1.25-9.68,1.25-5.25,0-10.45-.85-15.62-2.56s-9.58-3.9-13.24-6.56l-6.87,15.24c3.91,3,9.09,5.44,15.55,7.31,6.45,1.88,13.18,2.81,20.18,2.81,8.25,0,15.11-1.25,20.61-3.75,5.5-2.5,9.6-5.79,12.31-9.87,2.71-4.08,4.06-8.58,4.06-13.49,0-4.5-.94-8.27-2.81-11.31-1.87-3.04-4.31-5.45-7.31-7.25s-6.29-3.27-9.87-4.44c-3.58-1.17-7.21-2.14-10.87-2.94-3.67-.79-7-1.58-9.99-2.37-3-.79-5.42-1.89-7.25-3.31-1.84-1.42-2.75-3.29-2.75-5.63,0-1.83.56-3.5,1.69-5,1.13-1.5,2.9-2.69,5.31-3.56,2.41-.88,5.62-1.32,9.62-1.32s7.83.57,12,1.69c4.16,1.13,8.2,2.81,12.12,5.06l6.37-15.24c-4-2.5-8.68-4.41-14.05-5.75-5.37-1.33-10.81-2-16.3-2-8.25,0-15.1,1.23-20.56,3.68-5.45,2.46-9.52,5.75-12.18,9.87-2.67,4.12-4,8.68-4,13.68,0,4.58.89,8.39,2.69,11.43,1.79,3.04,4.21,5.5,7.25,7.37,3.04,1.88,6.38,3.37,10,4.49,3.62,1.13,7.22,2.09,10.81,2.87,3.58.79,6.89,1.63,9.93,2.5,3.04.87,5.48,2,7.31,3.37,1.83,1.37,2.75,3.23,2.75,5.56,0,1.83-.59,3.43-1.75,4.81-1.17,1.37-2.98,2.48-5.43,3.31Z"/>
  <path class="cls-1" d="M235.44,193.59l7.79,18.74h21.24l-39.23-87.46h-19.99l-38.86,87.46h20.74l7.79-18.74h40.51ZM215.18,144.88l13.87,33.34h-27.73l13.87-33.34Z"/>
  <path class="cls-1" d="M348.06,206.02c5.91-4.21,8.87-10.06,8.87-17.56,0-5.08-1.21-9.37-3.62-12.87-2.42-3.5-5.73-6.16-9.94-8-.73-.32-1.49-.6-2.27-.86,3.37-1.78,6.07-4.18,8.08-7.19,2.25-3.37,3.37-7.35,3.37-11.94,0-6.82-2.77-12.32-8.31-16.49-5.54-4.16-13.81-6.25-24.8-6.25h-42.73v87.46h45.23c11.49,0,20.2-2.1,26.11-6.31ZM316.95,140.11c4.91,0,8.68.84,11.31,2.5,2.62,1.66,3.93,4.24,3.93,7.75s-1.31,6.1-3.93,7.81c-2.62,1.71-6.4,2.56-11.31,2.56h-20.12v-20.62h20.12ZM296.83,197.09v-21.62h23.74c5.16,0,9.12.88,11.87,2.62,2.75,1.75,4.12,4.49,4.12,8.25s-1.38,6.37-4.12,8.12c-2.75,1.75-6.71,2.62-11.87,2.62h-23.74Z"/>
  <rect class="cls-1" x="375.42" y="124.87" width="20.36" height="87.46"/>
  <path class="cls-1" d="M446.88,124.87l-38.86,87.46h20.74l7.79-18.74h40.51l7.79,18.74h21.24l-39.23-87.46h-19.99ZM442.95,178.22l13.87-33.34,13.87,33.34h-27.73Z"/>
  <path class="cls-1" d="M29.51,273.3c2.5-2.5,5.45-4.44,8.87-5.81,3.41-1.37,7.16-2.06,11.24-2.06,4.33,0,8.35.88,12.06,2.62,3.71,1.75,7.02,4.33,9.93,7.75l13.12-12c-4.17-5.08-9.33-8.93-15.49-11.56-6.17-2.62-13.04-3.93-20.62-3.93-6.75,0-13.02,1.1-18.8,3.31-5.79,2.21-10.83,5.35-15.12,9.43-4.29,4.08-7.62,8.87-9.99,14.37-2.37,5.5-3.56,11.54-3.56,18.12s1.19,12.62,3.56,18.12c2.37,5.49,5.69,10.29,9.93,14.37,4.25,4.08,9.27,7.23,15.06,9.43,5.79,2.21,12.06,3.31,18.8,3.31,7.66,0,14.57-1.33,20.74-4,6.16-2.66,11.32-6.54,15.49-11.62l-13.12-12c-2.91,3.42-6.23,6.02-9.93,7.81-3.71,1.79-7.72,2.69-12.06,2.69-4.08,0-7.83-.69-11.24-2.06-3.42-1.37-6.38-3.31-8.87-5.81-2.5-2.5-4.44-5.45-5.81-8.87-1.38-3.42-2.06-7.21-2.06-11.37s.69-7.95,2.06-11.37c1.37-3.41,3.31-6.37,5.81-8.87Z"/>
  <path class="cls-1" d="M172.95,261.06c-4.33-4.08-9.39-7.22-15.18-9.43-5.79-2.21-12.15-3.31-19.05-3.31s-13.27,1.13-19.05,3.37c-5.79,2.25-10.85,5.42-15.18,9.49-4.33,4.08-7.68,8.86-10.06,14.31-2.37,5.45-3.56,11.47-3.56,18.05s1.19,12.5,3.56,17.99,5.73,10.29,10.06,14.37c4.33,4.08,9.41,7.25,15.24,9.49,5.83,2.25,12.2,3.37,19.12,3.37s13.14-1.1,18.93-3.31c5.79-2.2,10.85-5.35,15.18-9.43,4.33-4.08,7.68-8.89,10.05-14.43,2.37-5.54,3.56-11.56,3.56-18.06s-1.19-12.62-3.56-18.12c-2.37-5.49-5.73-10.29-10.05-14.37ZM164.01,304.85c-1.37,3.37-3.31,6.33-5.81,8.87-2.5,2.54-5.39,4.5-8.68,5.87-3.29,1.38-6.89,2.06-10.8,2.06s-7.54-.69-10.87-2.06c-3.33-1.37-6.23-3.33-8.68-5.87-2.46-2.54-4.38-5.5-5.75-8.87-1.38-3.37-2.06-7.14-2.06-11.31s.69-7.93,2.06-11.3c1.37-3.37,3.29-6.33,5.75-8.87,2.45-2.54,5.35-4.5,8.68-5.88,3.33-1.37,6.95-2.06,10.87-2.06s7.51.69,10.8,2.06c3.29,1.38,6.19,3.33,8.68,5.88,2.5,2.54,4.44,5.5,5.81,8.87,1.38,3.37,2.06,7.14,2.06,11.3s-.69,7.93-2.06,11.31Z"/>
  <polygon class="cls-1" points="265.16 302.88 221.67 249.81 204.93 249.81 204.93 337.27 224.93 337.27 224.93 284.22 268.4 337.27 285.15 337.27 285.15 249.81 265.16 249.81 265.16 302.88"/>
  <path class="cls-1" d="M373.86,255.25c-7.25-3.62-15.62-5.44-25.11-5.44h-39.73v87.46h39.73c9.49,0,17.87-1.81,25.11-5.44,7.25-3.62,12.91-8.7,16.99-15.24,4.08-6.54,6.13-14.22,6.13-23.05s-2.04-16.51-6.13-23.05c-4.08-6.54-9.74-11.62-16.99-15.24ZM372.92,307.97c-2.37,4.12-5.7,7.29-9.99,9.5-4.29,2.21-9.36,3.31-15.18,3.31h-18.37v-54.47h18.37c5.83,0,10.89,1.1,15.18,3.31,4.29,2.21,7.62,5.35,9.99,9.43,2.37,4.08,3.56,8.92,3.56,14.49s-1.19,10.31-3.56,14.43Z"/>
  <path class="cls-1" d="M491.93,261.06c-4.33-4.08-9.39-7.22-15.18-9.43-5.79-2.21-12.15-3.31-19.05-3.31s-13.27,1.13-19.05,3.37c-5.79,2.25-10.85,5.42-15.18,9.49-4.33,4.08-7.68,8.86-10.06,14.31-2.37,5.45-3.56,11.47-3.56,18.05s1.19,12.5,3.56,17.99,5.73,10.29,10.06,14.37c4.33,4.08,9.41,7.25,15.24,9.49,5.83,2.25,12.2,3.37,19.12,3.37s13.14-1.1,18.93-3.31c5.79-2.2,10.85-5.35,15.18-9.43,4.33-4.08,7.68-8.89,10.05-14.43,2.37-5.54,3.56-11.56,3.56-18.06s-1.19-12.62-3.56-18.12c-2.37-5.49-5.73-10.29-10.05-14.37ZM482.99,304.85c-1.37,3.37-3.31,6.33-5.81,8.87-2.5,2.54-5.39,4.5-8.68,5.87-3.29,1.38-6.89,2.06-10.8,2.06s-7.54-.69-10.87-2.06c-3.33-1.37-6.23-3.33-8.68-5.87-2.46-2.54-4.38-5.5-5.75-8.87-1.38-3.37-2.06-7.14-2.06-11.31s.69-7.93,2.06-11.3c1.37-3.37,3.29-6.33,5.75-8.87,2.45-2.54,5.35-4.5,8.68-5.88,3.33-1.37,6.95-2.06,10.87-2.06s7.51.69,10.8,2.06c3.29,1.38,6.19,3.33,8.68,5.88,2.5,2.54,4.44,5.5,5.81,8.87,1.38,3.37,2.06,7.14,2.06,11.3s-.69,7.93-2.06,11.31Z"/>
  <path class="cls-1" d="M586.95,300.35c-1.87-3.04-4.31-5.45-7.31-7.25-3-1.79-6.29-3.27-9.87-4.44-3.58-1.17-7.21-2.14-10.87-2.94-3.67-.79-7-1.58-9.99-2.37-3-.79-5.42-1.89-7.25-3.31-1.84-1.42-2.75-3.29-2.75-5.63,0-1.83.56-3.5,1.69-5,1.13-1.5,2.9-2.69,5.31-3.56,2.41-.88,5.62-1.32,9.62-1.32s7.83.57,12,1.69c4.16,1.13,8.2,2.81,12.12,5.06l6.37-15.24c-3.99-2.5-8.68-4.41-14.05-5.75-5.37-1.33-10.81-2-16.3-2-8.25,0-15.1,1.23-20.56,3.68-5.45,2.46-9.52,5.75-12.18,9.87-2.67,4.12-4,8.68-4,13.68,0,4.58.89,8.39,2.69,11.43,1.79,3.04,4.21,5.5,7.25,7.37,3.04,1.88,6.38,3.37,10,4.49,3.62,1.13,7.22,2.09,10.81,2.87,3.58.79,6.89,1.63,9.93,2.5,3.04.87,5.48,2,7.31,3.37,1.83,1.37,2.75,3.23,2.75,5.56,0,1.83-.59,3.43-1.75,4.81-1.17,1.37-2.98,2.48-5.43,3.31-2.46.84-5.69,1.25-9.68,1.25-5.25,0-10.45-.85-15.62-2.56-5.17-1.71-9.58-3.9-13.24-6.56l-6.87,15.24c3.91,3,9.09,5.44,15.55,7.31,6.45,1.88,13.18,2.81,20.18,2.81,8.25,0,15.11-1.25,20.61-3.75,5.5-2.5,9.6-5.79,12.31-9.87,2.71-4.08,4.06-8.58,4.06-13.49,0-4.5-.94-8.27-2.81-11.31Z"/>
</svg>