<?xml version="1.0" encoding="UTF-8"?>
<svg id="Layer_1" data-name="Layer 1" xmlns="http://www.w3.org/2000/svg" version="1.1" viewBox="0 0 256 256">
  <defs>
    <style>
      .cls-1 {
        fill: #3e6c78;
        stroke-width: 0px;
      }
    </style>
  </defs>
  <path class="cls-1" d="M250.65,66.38c-2.94-11.01-11.62-19.69-22.63-22.63-19.96-5.35-100.02-5.35-100.02-5.35,0,0-80.05,0-100.02,5.35-11.01,2.94-19.69,11.62-22.63,22.63C0,86.35,0,128,0,128c0,0,0,41.65,5.35,61.62,2.94,11.01,11.62,19.69,22.63,22.63,19.96,5.35,100.02,5.35,100.02,5.35,0,0,80.05,0,100.02-5.35,11.01-2.94,19.69-11.62,22.63-22.63,5.35-19.96,5.35-61.62,5.35-61.62,0,0,0-41.65-5.35-61.62ZM102.4,166.4v-76.8l66.51,38.4-66.51,38.4Z"/>
</svg>