<?xml version="1.0" encoding="UTF-8"?>
<svg id="Layer_1" data-name="Layer 1" xmlns="http://www.w3.org/2000/svg" version="1.1" viewBox="0 0 512 333">
  <defs>
    <style>
      .cls-1 {
        fill: #fff;
        stroke-width: 0px;
      }
    </style>
  </defs>
  <g>
    <path class="cls-1" d="M153.2,332.8c-2.9,0-5.7-.5-8.1-1.5-2.5-1-4.6-2.3-6.5-4.1s-3.2-3.9-4.3-6.3-1.5-5-1.5-7.9.5-5.5,1.5-7.9,2.5-4.5,4.3-6.3c1.8-1.8,4-3.2,6.5-4.1,2.5-1,5.2-1.5,8.1-1.5s5.7.5,8.2,1.5c2.5,1,4.7,2.5,6.4,4.5l-3.6,3.5c-1.5-1.5-3.1-2.7-5-3.5-1.8-.8-3.8-1.1-5.9-1.1s-4.2.4-6.1,1.1c-1.9.7-3.5,1.8-4.8,3.1s-2.4,2.9-3.2,4.7-1.1,3.8-1.1,5.9.4,4.1,1.1,5.9,1.8,3.4,3.2,4.7c1.4,1.3,3,2.4,4.8,3.1s3.9,1.1,6.1,1.1,4.1-.4,5.9-1.1c1.8-.8,3.5-1.9,5-3.5l3.6,3.5c-1.8,2-3.9,3.5-6.4,4.5-2.5,1-5.3,1.5-8.3,1.5h0Z"/>
    <path class="cls-1" d="M170.3,332.4l17.5-38.7h5.5l17.6,38.7h-5.8l-15.6-35.5h2.2l-15.6,35.5h-5.7,0ZM177.8,322.7l1.5-4.4h21.8l1.6,4.4h-24.9,0Z"/>
    <path class="cls-1" d="M218.3,332.4v-38.7h15.1c3.4,0,6.3.5,8.7,1.6,2.4,1.1,4.2,2.6,5.5,4.6s1.9,4.4,1.9,7.2-.6,5.2-1.9,7.2c-1.3,2-3.1,3.5-5.5,4.6-2.4,1.1-5.3,1.6-8.7,1.6h-12l2.5-2.6v14.3h-5.5ZM223.9,318.6l-2.5-2.8h11.9c3.5,0,6.2-.8,8-2.3s2.7-3.6,2.7-6.4-.9-4.9-2.7-6.4-4.5-2.3-8-2.3h-11.9l2.5-2.8v22.9h0Z"/>
    <path class="cls-1" d="M259.4,332.4v-38.7h5.5v38.7h-5.5Z"/>
    <path class="cls-1" d="M286,332.4v-33.9h-13.2v-4.8h32v4.8h-13.2v33.9h-5.5Z"/>
    <path class="cls-1" d="M304.7,332.4l17.5-38.7h5.5l17.6,38.7h-5.8l-15.6-35.5h2.2l-15.6,35.5h-5.7ZM312.2,322.7l1.5-4.4h21.8l1.6,4.4h-24.9Z"/>
    <path class="cls-1" d="M352.7,332.4v-38.7h5.5v33.9h20.9v4.8h-26.5,0Z"/>
  </g>
  <g>
    <path class="cls-1" d="M47.4,172c29.1.2,43.6,21.5,43.6,42.8s-14.5,42.8-43.6,42.8H0v-85.5h47.4ZM14.9,244.6h31.9c19.1,0,28.6-14.9,28.6-29.8s-9.5-29.9-28.6-29.9H14.9v59.8h0Z"/>
    <path class="cls-1" d="M139.1,170.8h14.9l43.5,86.8h-15.9l-7.1-13.9h-56l-7.1,13.9h-15.8l43.4-86.8ZM125,230.8h43l-21.5-42.3-21.5,42.3h0Z"/>
    <path class="cls-1" d="M209.9,172h14.9v36.3h55.6v-36.3h15v85.5h-15v-36.4h-55.6v36.4h-14.9v-85.5Z"/>
    <path class="cls-1" d="M351.3,170.8h14.9l43.5,86.8h-15.9l-7.1-13.9h-56l-7.1,13.9h-15.8l43.4-86.8h0ZM337.3,230.8h43l-21.5-42.3-21.5,42.3h0Z"/>
    <path class="cls-1" d="M422.2,172h14.9l60,66.2v-66.2h14.9v85.5h-14.9l-60-66.2v66.2h-14.9v-85.5Z"/>
  </g>
  <g>
    <polygon class="cls-1" points="221.6 44.1 202.6 26.2 202.6 143 221.6 143 221.6 44.1"/>
    <polygon class="cls-1" points="258 22.2 239 .2 239 143 258 143 258 22.2"/>
    <g>
      <path class="cls-1" d="M308,68c-9.2-22-27.9-32.8-32.6-35.4v35.4h32.6Z"/>
      <g>
        <path class="cls-1" d="M311.7,104.6c1.4-7.4,1.7-15.7,0-24.4h-36.3v24.4h36.4Z"/>
        <path class="cls-1" d="M275.4,116.7v26.2h17.3c.9-1,10-11,15.7-26.2h-32.9Z"/>
      </g>
    </g>
  </g>
</svg>