<?xml version="1.0" encoding="UTF-8"?>
<svg id="Layer_1" data-name="Layer 1" xmlns="http://www.w3.org/2000/svg" version="1.1" viewBox="0 0 512 333">
  <defs>
    <style>
      .cls-1 {
        fill: #061c21;
      }

      .cls-1, .cls-2, .cls-3, .cls-4 {
        stroke-width: 0px;
      }

      .cls-2 {
        fill: gray;
      }

      .cls-3 {
        fill: #8d7d47;
      }

      .cls-4 {
        fill: #3e6c78;
      }
    </style>
  </defs>
  <g>
    <path class="cls-2" d="M153.24,332.8c-2.95,0-5.66-.49-8.15-1.48-2.49-.97-4.64-2.34-6.46-4.13s-3.25-3.87-4.28-6.27c-1.03-2.4-1.54-5.03-1.54-7.9s.51-5.5,1.54-7.9c1.03-2.4,2.46-4.48,4.31-6.27,1.84-1.79,4-3.16,6.49-4.15,2.48-.97,5.2-1.46,8.15-1.46s5.73.5,8.25,1.51c2.52,1.02,4.67,2.52,6.43,4.51l-3.59,3.47c-1.47-1.54-3.13-2.69-4.97-3.45-1.84-.75-3.81-1.13-5.91-1.13s-4.19.36-6.05,1.11c-1.86.73-3.47,1.77-4.83,3.09-1.36,1.32-2.42,2.9-3.18,4.72s-1.13,3.8-1.13,5.94.38,4.11,1.13,5.94,1.81,3.38,3.18,4.72c1.36,1.32,2.97,2.36,4.83,3.09s3.88,1.11,6.05,1.11,4.07-.38,5.91-1.15c1.84-.75,3.5-1.91,4.97-3.51l3.59,3.49c-1.77,1.98-3.91,3.49-6.43,4.53-2.52,1.02-5.29,1.54-8.31,1.54Z"/>
    <path class="cls-2" d="M170.3,332.35l17.51-38.66h5.47l17.56,38.66h-5.8l-15.63-35.55h2.21l-15.63,35.55h-5.69ZM177.75,322.7l1.49-4.43h21.75l1.6,4.43h-24.85Z"/>
    <path class="cls-2" d="M218.34,332.35v-38.66h15.08c3.38,0,6.28.54,8.67,1.61,2.39,1.06,4.23,2.6,5.52,4.63s1.93,4.44,1.93,7.24-.64,5.19-1.93,7.2c-1.29,2-3.13,3.54-5.52,4.63-2.4,1.09-5.29,1.63-8.67,1.63h-12.04l2.49-2.6v14.3h-5.52ZM223.87,318.6l-2.49-2.76h11.87c3.53,0,6.21-.75,8.03-2.26s2.73-3.65,2.73-6.41-.91-4.9-2.73-6.41-4.5-2.27-8.03-2.27h-11.87l2.49-2.76v22.86Z"/>
    <path class="cls-2" d="M259.42,332.35v-38.66h5.52v38.66h-5.52Z"/>
    <path class="cls-2" d="M285.98,332.35v-33.85h-13.25v-4.81h31.97v4.81h-13.25v33.85h-5.47Z"/>
    <path class="cls-2" d="M304.71,332.35l17.5-38.66h5.47l17.57,38.66h-5.81l-15.62-35.55h2.2l-15.62,35.55h-5.68ZM312.16,322.7l1.48-4.43h21.76l1.61,4.43h-24.85Z"/>
    <path class="cls-2" d="M352.74,332.35v-38.66h5.52v33.85h20.93v4.81h-26.45Z"/>
  </g>
  <g>
    <path class="cls-1" d="M47.41,172.03c29.08.24,43.62,21.51,43.62,42.77s-14.54,42.77-43.62,42.77H0v-85.54h47.41ZM14.91,244.61h31.89c19.06,0,28.59-14.91,28.59-29.82s-9.53-29.94-28.59-29.94H14.91v59.75Z"/>
    <path class="cls-1" d="M139.06,170.81h14.91l43.5,86.76h-15.89l-7.09-13.93h-55.96l-7.09,13.93h-15.76l43.38-86.76ZM125.01,230.8h43.01l-21.51-42.28-21.51,42.28Z"/>
    <path class="cls-1" d="M209.93,172.03h14.91v36.29h55.6v-36.29h15.03v85.54h-15.03v-36.41h-55.6v36.41h-14.91v-85.54Z"/>
    <path class="cls-1" d="M351.31,170.81h14.91l43.5,86.76h-15.89l-7.09-13.93h-55.97l-7.09,13.93h-15.76l43.38-86.76ZM337.26,230.8h43.01l-21.51-42.28-21.51,42.28Z"/>
    <path class="cls-1" d="M422.19,172.03h14.91l60,66.23v-66.23h14.91v85.54h-14.91l-60-66.23v66.23h-14.91v-85.54Z"/>
  </g>
  <g>
    <polygon class="cls-4" points="221.59 44.14 202.56 26.16 202.56 142.97 221.59 142.97 221.59 44.14"/>
    <polygon class="cls-4" points="257.99 22.18 238.97 .2 238.97 142.97 257.99 142.97 257.99 22.18"/>
    <g>
      <path class="cls-3" d="M307.95,68.02c-9.2-22.02-27.94-32.85-32.58-35.38v35.38h32.58Z"/>
      <g>
        <path class="cls-3" d="M311.74,104.56c1.39-7.45,1.67-15.66-.06-24.36h-36.31v24.36h36.37Z"/>
        <path class="cls-3" d="M275.37,116.74v26.22h17.26c.93-.99,9.98-11.02,15.67-26.22h-32.93Z"/>
      </g>
    </g>
  </g>
</svg>