<?xml version="1.0" encoding="UTF-8"?>
<svg id="Layer_1" data-name="Layer 1" xmlns="http://www.w3.org/2000/svg" xmlns:xlink="http://www.w3.org/1999/xlink" version="1.1" viewBox="0 0 1840.953 768">
  <defs>
    <style>
      .cls-1 {
        fill: url(#linear-gradient);
      }

      .cls-1, .cls-2, .cls-3, .cls-4, .cls-5, .cls-6 {
        stroke-width: 0px;
      }

      .cls-7 {
        stroke: url(#linear-gradient-5);
      }

      .cls-7, .cls-8 {
        stroke-linecap: round;
        stroke-linejoin: round;
        stroke-width: 4.302px;
      }

      .cls-7, .cls-8, .cls-6 {
        fill: #fff;
      }

      .cls-8 {
        stroke: url(#linear-gradient-4);
      }

      .cls-2 {
        fill: url(#linear-gradient-2);
      }

      .cls-3 {
        fill: url(#linear-gradient-3);
      }

      .cls-4 {
        fill: url(#linear-gradient-7);
      }

      .cls-5 {
        fill: url(#linear-gradient-6);
      }

      .cls-9 {
        isolation: isolate;
      }
    </style>
    <linearGradient id="linear-gradient" x1="1345.492" y1="364.145" x2="1370.45" y2="336.427" gradientTransform="translate(0 768) scale(1 -1)" gradientUnits="userSpaceOnUse">
      <stop offset="0" stop-color="#021" stop-opacity=".2"/>
      <stop offset=".559" stop-color="#000101" stop-opacity=".012"/>
      <stop offset="1" stop-color="#000" stop-opacity="0"/>
    </linearGradient>
    <linearGradient id="linear-gradient-2" x1="1347.273" y1="363.156" x2="1368.272" y2="339.833" gradientTransform="translate(0 768) scale(1 -1)" gradientUnits="userSpaceOnUse">
      <stop offset="0" stop-color="#021" stop-opacity=".2"/>
      <stop offset="1" stop-color="#000" stop-opacity="0"/>
    </linearGradient>
    <linearGradient id="linear-gradient-3" x1="2239.433" y1="9244.748" x2="2348.752" y2="9244.748" gradientTransform="translate(3679.346 -8864.372) rotate(-180) scale(1 -1)" gradientUnits="userSpaceOnUse">
      <stop offset="0" stop-color="#23b4d1"/>
      <stop offset="1" stop-color="#004aa3"/>
    </linearGradient>
    <linearGradient id="linear-gradient-4" x1="1353.834" y1="366.896" x2="1335.479" y2="398.688" gradientTransform="translate(0 768) scale(1 -1)" gradientUnits="userSpaceOnUse">
      <stop offset="0" stop-color="#4d4d4d"/>
      <stop offset="1" stop-color="#fff"/>
    </linearGradient>
    <linearGradient id="linear-gradient-5" x1="1773.346" y1="9497.186" x2="1765.935" y2="9510.022" gradientTransform="translate(3260.571 -9158.495) rotate(-179.607) scale(1 -1)" gradientUnits="userSpaceOnUse">
      <stop offset="0" stop-color="#4d4d4d"/>
      <stop offset="1" stop-color="#fff"/>
    </linearGradient>
    <linearGradient id="linear-gradient-6" x1="1330.95" y1="379.24" x2="1352.898" y2="379.24" gradientTransform="translate(3.304 775.697) rotate(-.395) scale(1 -1)" gradientUnits="userSpaceOnUse">
      <stop offset="0" stop-color="#23b4d1"/>
      <stop offset="1" stop-color="#004aa3"/>
    </linearGradient>
    <linearGradient id="linear-gradient-7" x1="1338.289" y1="365.147" x2="1354.216" y2="380.856" gradientTransform="translate(3.304 775.697) rotate(-.395) scale(1 -1)" gradientUnits="userSpaceOnUse">
      <stop offset="0" stop-color="#fff" stop-opacity=".2"/>
      <stop offset="1" stop-color="#fff" stop-opacity="0"/>
    </linearGradient>
  </defs>
  <g class="cls-9">
    <g id="cities">
      <g>
        <g>
          <path class="cls-1" d="M1376.659,419.201c-.83-2.564-2.803-4.787-5.313-6.403-2.72-1.752-6.031-2.56-9.315-3.281-3.462-.76-6.975-1.36-10.495-1.904-1.774-.274-3.552-.531-5.333-.771-1.366-.184-2.703-.406-3.991.157-1.709.747-1.147,2.068-.9,3.372.277,1.463.608,2.92.992,4.367.805,3.032,1.814,6.062,3.31,8.914.717,1.367,1.546,2.741,2.697,3.897,1.233,1.239,2.869,2.243,4.557,3.015,3.06,1.399,6.596,2.055,10.083,1.911,3.578-.148,7.15-1.152,9.869-3.127,2.703-1.964,4.365-4.803,4.262-7.805-.027-.792-.177-1.576-.421-2.341h-.002Z"/>
          <path class="cls-2" d="M1373.11,418.622c1.043,3.155-.568,6.389-3.704,8.284-3.049,1.842-7.116,2.325-10.759,1.69-3.846-.671-7.071-2.495-8.983-5.351-1.637-2.446-2.754-5.138-3.724-7.809-.838-2.308-2.172-7.278-2.202-7.409,3.918.463,7.825,1.136,11.691,1.835,2.2.398,4.394.827,6.562,1.335,2.119.497,4.35,1.013,6.202,2.03,2.316,1.272,4.176,3.15,4.916,5.394h0Z"/>
        </g>
        <g>
          <path class="cls-3" d="M1342.569,392.35c-6.603,0-11.975-5.371-11.975-11.974s5.372-11.974,11.975-11.974h85.369c6.603,0,11.975,5.372,11.975,11.974s-5.372,11.974-11.975,11.974h-85.369Z"/>
          <path class="cls-6" d="M1427.938,369.401c6.061,0,10.974,4.913,10.974,10.974s-4.913,10.974-10.974,10.974h-85.369c-6.061,0-10.974-4.913-10.974-10.974s4.913-10.974,10.974-10.974h85.369M1427.938,367.401h-85.369c-7.154,0-12.974,5.82-12.974,12.974s5.82,12.974,12.974,12.974h85.369c7.154,0,12.974-5.82,12.974-12.974s-5.82-12.974-12.974-12.974h0Z"/>
        </g>
        <g>
          <path class="cls-6" d="M1364.58,374.794h2.235l3.568,6.173c.082.141.151.272.209.393.057.121.11.252.16.394h.055c-.005-.155-.008-.301-.01-.438-.003-.137-.004-.283-.004-.438v-6.084h1.818v9.953h-2.29l-3.534-6.118c-.077-.142-.145-.277-.201-.407-.058-.13-.111-.263-.161-.399h-.048c.005.15.009.304.014.461s.007.312.007.462v6.002h-1.818v-9.953h0Z"/>
          <path class="cls-6" d="M1374.52,381.028c0-1.117.336-2.014,1.009-2.69.672-.677,1.529-1.015,2.573-1.015s1.872.317,2.472.953c.599.636.898,1.512.898,2.629v.731h-5.564v-1.265h3.555v-.157c0-.396-.118-.732-.355-1.009-.237-.275-.574-.413-1.012-.413-.506,0-.891.19-1.155.57-.265.381-.396.899-.396,1.556v.438c0,.638.143,1.146.427,1.524.285.378.706.567,1.262.567.383,0,.716-.096.998-.287s.511-.41.684-.656l1.429.937c-.228.438-.613.8-1.155,1.087s-1.183.431-1.921.431c-1.167,0-2.083-.34-2.748-1.019-.665-.679-.998-1.577-.998-2.693v-.219h-.003Z"/>
          <path class="cls-6" d="M1382.226,377.535h4.437v1.483h-4.437v-1.483ZM1383.3,378.308l.007-.198v-2.27h2.017v6.72c0,.323.062.548.185.673.123.126.292.188.506.188.104,0,.21-.014.314-.041s.207-.06.308-.096v1.456c-.104.055-.254.103-.448.144-.193.041-.404.062-.632.062-.679,0-1.225-.189-1.638-.567-.412-.378-.618-.971-.618-1.777v-4.293h0Z"/>
          <path class="cls-6" d="M1388.752,380.81c.623-.401,1.403-.604,2.342-.608h1.395v-.403c0-.319-.083-.579-.25-.779-.166-.201-.459-.301-.878-.301-.424,0-.724.082-.899.246s-.263.367-.263.608v.103h-2.003v-.103c0-.652.302-1.188.906-1.61.604-.421,1.384-.632,2.341-.632.962,0,1.715.201,2.259.604.545.403.817,1.027.817,1.87v3.329c0,.292.027.569.082.834.055.264.125.487.212.67v.109h-1.996c-.055-.105-.104-.243-.146-.414-.044-.171-.072-.336-.086-.495-.137.269-.403.509-.8.721s-.889.318-1.477.318c-.702,0-1.292-.187-1.771-.561s-.718-.939-.718-1.695c0-.807.312-1.411.933-1.812h0ZM1390.13,383.209c.183.196.474.294.875.294.429,0,.782-.136,1.063-.407.279-.271.42-.596.42-.974v-.684h-1.114c-.515,0-.896.086-1.146.26-.248.173-.372.421-.372.745,0,.314.091.569.273.766h0Z"/>
          <path class="cls-6" d="M1396.687,377.535h1.928l.048.807h.034c.187-.278.464-.507.83-.688.367-.18.771-.27,1.214-.27.743,0,1.348.211,1.815.632.467.422.7,1.161.7,2.219v4.512h-2.03v-4.573c0-.451-.097-.767-.291-.947-.193-.18-.468-.27-.823-.27-.292,0-.563.083-.817.249-.252.167-.445.4-.577.701v4.84h-2.03v-7.212h0Z"/>
          <path class="cls-6" d="M1405.117,386.087c.114.036.24.064.38.085.139.021.271.031.399.031.31,0,.579-.098.807-.291s.426-.594.595-1.199h-.075l-2.796-7.178h2.058l1.463,4.19c.06.173.104.331.137.475s.063.293.096.448h.041c.032-.155.065-.305.099-.448.035-.144.079-.302.134-.475l1.408-4.19h1.825l-2.96,8.066c-.255.697-.606,1.226-1.053,1.586-.446.359-.989.54-1.627.54-.205,0-.383-.011-.533-.031s-.289-.058-.417-.112l.021-1.497h-.002Z"/>
          <path class="cls-6" d="M1413.365,380.81c.623-.401,1.403-.604,2.342-.608h1.395v-.403c0-.319-.083-.579-.25-.779-.166-.201-.459-.301-.878-.301-.424,0-.724.082-.899.246s-.263.367-.263.608v.103h-2.003v-.103c0-.652.302-1.188.906-1.61.604-.421,1.384-.632,2.341-.632.962,0,1.715.201,2.259.604.545.403.817,1.027.817,1.87v3.329c0,.292.027.569.082.834.055.264.125.487.212.67v.109h-1.996c-.055-.105-.104-.243-.146-.414-.044-.171-.072-.336-.086-.495-.137.269-.403.509-.8.721s-.889.318-1.477.318c-.702,0-1.292-.187-1.771-.561s-.718-.939-.718-1.695c0-.807.312-1.411.933-1.812h0ZM1414.743,383.209c.183.196.474.294.875.294.429,0,.782-.136,1.063-.407.279-.271.42-.596.42-.974v-.684h-1.114c-.515,0-.896.086-1.146.26-.248.173-.372.421-.372.745,0,.314.091.569.273.766h0Z"/>
        </g>
        <g>
          <g>
            <path class="cls-6" d="M1342.603,385.296c-2.904.02-5.275-2.319-5.295-5.223s2.319-5.275,5.223-5.295c2.904-.02,5.275,2.319,5.295,5.223s-2.318,5.275-5.223,5.295Z"/>
            <path class="cls-8" d="M1342.494,369.402c-6.061.042-10.941,4.988-10.899,11.049.042,6.06,11.143,24.576,11.143,24.576,0,0,10.846-18.666,10.805-24.727-.042-6.061-4.989-10.94-11.049-10.899h0Z"/>
            <path class="cls-7" d="M1342.567,374.777c2.904,0,5.259,2.355,5.259,5.259s-2.355,5.259-5.259,5.259-5.259-2.355-5.259-5.259,2.355-5.259,5.259-5.259Z"/>
          </g>
          <path class="cls-5" d="M1342.494,369.402c-6.061.042-10.941,4.988-10.899,11.049.042,6.06,11.143,24.576,11.143,24.576,0,0,10.846-18.666,10.805-24.727-.042-6.061-4.989-10.94-11.049-10.899h0ZM1342.603,385.296c-2.904.02-5.275-2.319-5.295-5.223s2.319-5.275,5.223-5.295c2.904-.02,5.275,2.319,5.295,5.223s-2.318,5.275-5.223,5.295Z"/>
          <path class="cls-4" d="M1337.453,395.533c2.687,5.161,5.286,9.494,5.286,9.494,0,0,7.952-13.686,10.212-21.425-2.494,6.418-10.227,12.013-15.498,11.931Z"/>
        </g>
      </g>
    </g>
  </g>
</svg>