<?xml version="1.0" encoding="UTF-8"?>
<svg id="Layer_1" data-name="Layer 1" xmlns="http://www.w3.org/2000/svg" xmlns:xlink="http://www.w3.org/1999/xlink" version="1.1" viewBox="0 0 1840.953 768">
  <defs>
    <style>
      .cls-1 {
        fill: url(#linear-gradient);
      }

      .cls-1, .cls-2, .cls-3, .cls-4, .cls-5, .cls-6 {
        stroke-width: 0px;
      }

      .cls-7 {
        stroke: url(#linear-gradient-2);
      }

      .cls-7, .cls-8 {
        stroke-linecap: round;
        stroke-linejoin: round;
        stroke-width: 4.302px;
      }

      .cls-7, .cls-8, .cls-6 {
        fill: #fff;
      }

      .cls-8 {
        stroke: url(#linear-gradient-3);
      }

      .cls-2 {
        fill: url(#linear-gradient-4);
      }

      .cls-3 {
        fill: url(#linear-gradient-7);
      }

      .cls-4 {
        fill: url(#linear-gradient-5);
      }

      .cls-5 {
        fill: url(#linear-gradient-6);
      }

      .cls-9 {
        isolation: isolate;
      }
    </style>
    <linearGradient id="linear-gradient" x1="1064.64" y1="168.717" x2="1163.576" y2="168.717" gradientUnits="userSpaceOnUse">
      <stop offset="0" stop-color="#2dba5e"/>
      <stop offset="1" stop-color="#005715"/>
    </linearGradient>
    <linearGradient id="linear-gradient-2" x1="1162.942" y1="189.445" x2="1144.587" y2="157.653" gradientUnits="userSpaceOnUse">
      <stop offset="0" stop-color="#4d4d4d"/>
      <stop offset="1" stop-color="#fff"/>
    </linearGradient>
    <linearGradient id="linear-gradient-3" x1="2522.572" y1="-8568.326" x2="2515.16" y2="-8581.162" gradientTransform="translate(3729.298 -8388.888) rotate(-179.607)" gradientUnits="userSpaceOnUse">
      <stop offset="0" stop-color="#4d4d4d"/>
      <stop offset="1" stop-color="#fff"/>
    </linearGradient>
    <linearGradient id="linear-gradient-4" x1="1141.532" y1="174.156" x2="1163.48" y2="174.156" gradientTransform="translate(-1.985 9.349) rotate(-.395)" gradientUnits="userSpaceOnUse">
      <stop offset="0" stop-color="#2dba5e"/>
      <stop offset="1" stop-color="#005715"/>
    </linearGradient>
    <linearGradient id="linear-gradient-5" x1="1148.866" y1="188.249" x2="1164.793" y2="172.539" gradientTransform="translate(-1.985 9.349) rotate(-.395)" gradientUnits="userSpaceOnUse">
      <stop offset="0" stop-color="#fff" stop-opacity=".2"/>
      <stop offset="1" stop-color="#fff" stop-opacity="0"/>
    </linearGradient>
    <linearGradient id="linear-gradient-6" x1="1154.6" y1="192.196" x2="1179.558" y2="219.914" gradientUnits="userSpaceOnUse">
      <stop offset="0" stop-color="#021" stop-opacity=".2"/>
      <stop offset=".559" stop-color="#000101" stop-opacity=".012"/>
      <stop offset="1" stop-color="#000" stop-opacity="0"/>
    </linearGradient>
    <linearGradient id="linear-gradient-7" x1="1156.38" y1="193.186" x2="1177.381" y2="216.508" gradientUnits="userSpaceOnUse">
      <stop offset="0" stop-color="#021" stop-opacity=".2"/>
      <stop offset="1" stop-color="#000" stop-opacity="0"/>
    </linearGradient>
  </defs>
  <g class="cls-9">
    <g id="cities">
      <g>
        <g>
          <path class="cls-1" d="M1076.614,180.691c-6.603,0-11.974-5.372-11.974-11.974s5.371-11.974,11.974-11.974h74.988c6.603,0,11.974,5.372,11.974,11.974s-5.371,11.974-11.974,11.974h-74.988Z"/>
          <path class="cls-6" d="M1151.602,157.743c6.061,0,10.974,4.913,10.974,10.974h0c0,6.061-4.913,10.974-10.974,10.974h-74.988c-6.061,0-10.974-4.913-10.974-10.974h0c0-6.061,4.913-10.974,10.974-10.974h74.988M1151.602,155.743h-74.988c-7.154,0-12.974,5.82-12.974,12.974s5.82,12.974,12.974,12.974h74.988c7.154,0,12.974-5.82,12.974-12.974s-5.82-12.974-12.974-12.974h0Z"/>
        </g>
        <g>
          <path class="cls-6" d="M1083.587,163.135h3.794c1.157,0,2.049.278,2.673.834s.937,1.352.937,2.386-.311,1.828-.934,2.393c-.621.565-1.514.848-2.676.848h-1.695v3.493h-2.099v-9.953h0ZM1087.189,168.029c.643,0,1.087-.148,1.333-.444s.369-.706.369-1.23c0-.52-.123-.924-.369-1.213s-.69-.434-1.333-.434h-1.504v3.322h1.504Z"/>
          <path class="cls-6" d="M1092.556,165.876h1.935l.048.786h.034c.142-.269.34-.5.595-.694s.542-.291.861-.291c.091,0,.186.012.283.034.099.023.168.043.209.062v1.757c-.082-.018-.168-.033-.256-.044-.09-.011-.188-.017-.298-.017-.31,0-.588.092-.834.277s-.426.418-.54.701v4.642h-2.037v-7.212h0Z"/>
          <path class="cls-6" d="M1098.297,169.15c.623-.401,1.403-.604,2.342-.608h1.395v-.403c0-.319-.083-.579-.25-.779-.166-.2-.459-.301-.878-.301-.424,0-.724.082-.899.246s-.263.367-.263.608v.103h-2.003v-.103c0-.651.302-1.188.906-1.61.604-.421,1.384-.632,2.341-.632.962,0,1.715.202,2.259.605.545.403.817,1.027.817,1.87v3.329c0,.292.027.57.082.834.055.265.125.488.212.67v.109h-1.996c-.055-.104-.104-.243-.146-.414-.044-.171-.072-.336-.086-.496-.137.269-.403.509-.8.721s-.889.318-1.477.318c-.702,0-1.292-.187-1.771-.561-.479-.374-.718-.938-.718-1.695,0-.807.312-1.41.933-1.812h0ZM1099.675,171.55c.183.196.474.294.875.294.429,0,.782-.136,1.063-.407.279-.271.42-.596.42-.974v-.684h-1.114c-.515,0-.896.087-1.146.26-.248.173-.372.422-.372.745,0,.314.091.57.273.766h0Z"/>
          <path class="cls-6" d="M1107.161,173.819c.164.168.436.333.813.492.378.159.795.239,1.251.239.497,0,.9-.156,1.21-.468s.465-.783.465-1.412v-.328c-.178.278-.436.493-.772.646s-.733.229-1.189.229c-.925,0-1.673-.33-2.242-.991s-.854-1.54-.854-2.639v-.219c0-1.098.284-1.978.851-2.639.568-.661,1.316-.991,2.246-.991.446,0,.85.09,1.21.27s.615.412.766.694h.041l.041-.827h1.935v6.74c0,1.112-.341,1.966-1.021,2.563-.682.597-1.54.896-2.574.896-.634,0-1.215-.096-1.743-.287s-.966-.431-1.312-.718l.882-1.251h-.004,0ZM1108.305,171.133c.258.369.653.554,1.187.554.347,0,.642-.102.886-.304.243-.203.418-.432.522-.687v-2.386c-.114-.305-.294-.555-.54-.749s-.547-.291-.902-.291c-.511,0-.895.186-1.152.557-.257.372-.386.854-.386,1.446v.417c0,.593.129,1.073.386,1.442h0Z"/>
          <path class="cls-6" d="M1114.99,165.876h2.037v4.471c0,.497.101.841.301,1.032s.474.287.82.287c.31,0,.587-.09.83-.27.244-.18.428-.404.551-.673v-4.847h2.03v7.212h-1.928l-.048-.807h-.034c-.21.292-.499.523-.868.694s-.779.256-1.23.256c-.72,0-1.311-.227-1.771-.68s-.69-1.211-.69-2.273v-4.402Z"/>
          <path class="cls-6" d="M1123.297,169.369c0-1.116.336-2.013,1.009-2.69.672-.677,1.529-1.015,2.573-1.015s1.872.318,2.472.954c.599.636.898,1.512.898,2.628v.731h-5.564v-1.265h3.555v-.157c0-.396-.118-.732-.355-1.008s-.574-.414-1.012-.414c-.506,0-.891.19-1.155.571s-.396.899-.396,1.555v.438c0,.638.143,1.146.427,1.524.285.378.706.567,1.262.567.383,0,.716-.096.998-.287s.511-.41.684-.656l1.429.937c-.228.438-.613.8-1.155,1.087s-1.183.431-1.921.431c-1.167,0-2.083-.339-2.748-1.019-.665-.679-.998-1.577-.998-2.693v-.219h-.003,0Z"/>
        </g>
        <g>
          <g>
            <path class="cls-6" d="M1151.711,173.636c-2.904.02-5.275-2.319-5.295-5.223s2.319-5.275,5.223-5.295,5.275,2.319,5.295,5.223-2.318,5.275-5.223,5.295Z"/>
            <path class="cls-7" d="M1151.602,157.743c-6.061.042-10.941,4.988-10.899,11.049.042,6.06,11.143,24.576,11.143,24.576,0,0,10.846-18.666,10.805-24.727-.042-6.061-4.989-10.94-11.049-10.899h0Z"/>
            <path class="cls-8" d="M1151.675,163.118c2.904,0,5.259,2.355,5.259,5.259s-2.355,5.259-5.259,5.259-5.259-2.355-5.259-5.259,2.355-5.259,5.259-5.259Z"/>
          </g>
          <path class="cls-2" d="M1151.602,157.743c-6.061.042-10.941,4.988-10.899,11.049.042,6.06,11.143,24.576,11.143,24.576,0,0,10.846-18.666,10.805-24.727-.042-6.061-4.989-10.94-11.049-10.899h0ZM1151.711,173.636c-2.904.02-5.275-2.319-5.295-5.223s2.319-5.275,5.223-5.295,5.275,2.319,5.295,5.223-2.318,5.275-5.223,5.295Z"/>
          <path class="cls-4" d="M1146.56,183.874c2.687,5.161,5.286,9.494,5.286,9.494,0,0,7.952-13.686,10.212-21.425-2.494,6.418-10.227,12.013-15.498,11.931Z"/>
        </g>
        <g>
          <path class="cls-5" d="M1185.767,207.542c-.83-2.564-2.803-4.787-5.313-6.403-2.72-1.752-6.031-2.56-9.315-3.281-3.462-.76-6.975-1.36-10.495-1.904-1.774-.274-3.552-.531-5.333-.771-1.366-.184-2.703-.406-3.991.157-1.709.747-1.147,2.068-.9,3.372.277,1.463.608,2.92.992,4.367.805,3.032,1.814,6.062,3.31,8.914.717,1.367,1.546,2.741,2.697,3.897,1.233,1.239,2.869,2.243,4.557,3.015,3.06,1.399,6.596,2.055,10.083,1.911,3.578-.148,7.15-1.152,9.869-3.127,2.703-1.964,4.365-4.803,4.262-7.805-.027-.792-.177-1.576-.421-2.341h-.002Z"/>
          <path class="cls-3" d="M1182.218,206.963c1.043,3.155-.568,6.389-3.704,8.284-3.049,1.842-7.116,2.325-10.759,1.69-3.846-.671-7.071-2.495-8.983-5.351-1.637-2.446-2.754-5.138-3.724-7.809-.838-2.308-2.172-7.278-2.202-7.409,3.918.463,7.825,1.136,11.691,1.835,2.2.398,4.394.827,6.562,1.335,2.119.497,4.35,1.013,6.202,2.03,2.316,1.272,4.176,3.15,4.916,5.394h0Z"/>
        </g>
      </g>
    </g>
  </g>
</svg>