<?xml version="1.0" encoding="UTF-8"?>
<svg id="Layer_1" data-name="Layer 1" xmlns="http://www.w3.org/2000/svg" xmlns:xlink="http://www.w3.org/1999/xlink" version="1.1" viewBox="0 0 1840.953 768">
  <defs>
    <style>
      .cls-1 {
        fill: #333;
      }

      .cls-1, .cls-2, .cls-3, .cls-4, .cls-5, .cls-6, .cls-7 {
        stroke-width: 0px;
      }

      .cls-2 {
        fill: url(#linear-gradient);
      }

      .cls-8 {
        stroke: url(#linear-gradient-2);
      }

      .cls-8, .cls-9 {
        stroke-linecap: round;
        stroke-linejoin: round;
        stroke-width: 4.302px;
      }

      .cls-8, .cls-9, .cls-7 {
        fill: #fff;
      }

      .cls-9 {
        stroke: url(#linear-gradient-3);
      }

      .cls-3 {
        fill: url(#linear-gradient-4);
      }

      .cls-4 {
        fill: url(#linear-gradient-7);
      }

      .cls-5 {
        fill: url(#linear-gradient-5);
      }

      .cls-6 {
        fill: url(#linear-gradient-6);
      }

      .cls-10 {
        isolation: isolate;
      }
    </style>
    <linearGradient id="linear-gradient" x1="3098.019" y1="-8837.626" x2="3192.342" y2="-8837.626" gradientTransform="translate(-2522.311 9306.709)" gradientUnits="userSpaceOnUse">
      <stop offset=".006" stop-color="#d94c00"/>
      <stop offset="1" stop-color="#ffdc54"/>
    </linearGradient>
    <linearGradient id="linear-gradient-2" x1="598.948" y1="489.81" x2="580.593" y2="458.018" gradientUnits="userSpaceOnUse">
      <stop offset="0" stop-color="#4d4d4d"/>
      <stop offset="1" stop-color="#fff"/>
    </linearGradient>
    <linearGradient id="linear-gradient-3" x1="3084.502" y1="-8872.537" x2="3077.092" y2="-8885.373" gradientTransform="translate(3729.298 -8388.888) rotate(-179.607)" gradientUnits="userSpaceOnUse">
      <stop offset="0" stop-color="#4d4d4d"/>
      <stop offset="1" stop-color="#fff"/>
    </linearGradient>
    <linearGradient id="linear-gradient-4" x1="575.51" y1="470.625" x2="597.459" y2="470.625" gradientTransform="translate(-1.985 9.349) rotate(-.395)" xlink:href="#linear-gradient"/>
    <linearGradient id="linear-gradient-5" x1="582.814" y1="484.719" x2="598.741" y2="469.01" gradientTransform="translate(-1.985 9.349) rotate(-.395)" gradientUnits="userSpaceOnUse">
      <stop offset="0" stop-color="#fff" stop-opacity=".2"/>
      <stop offset="1" stop-color="#fff" stop-opacity="0"/>
    </linearGradient>
    <linearGradient id="linear-gradient-6" x1="591.299" y1="493.95" x2="616.257" y2="521.668" gradientUnits="userSpaceOnUse">
      <stop offset="0" stop-color="#021" stop-opacity=".2"/>
      <stop offset=".559" stop-color="#000101" stop-opacity=".012"/>
      <stop offset="1" stop-color="#000" stop-opacity="0"/>
    </linearGradient>
    <linearGradient id="linear-gradient-7" x1="593.08" y1="494.938" x2="614.079" y2="518.261" gradientUnits="userSpaceOnUse">
      <stop offset="0" stop-color="#021" stop-opacity=".2"/>
      <stop offset="1" stop-color="#000" stop-opacity="0"/>
    </linearGradient>
  </defs>
  <g class="cls-10">
    <g id="cities">
      <g>
        <g>
          <path class="cls-2" d="M658.057,457.108c6.603,0,11.974,5.372,11.974,11.975s-5.372,11.974-11.974,11.974h-70.374c-6.603,0-11.975-5.371-11.975-11.974s5.372-11.975,11.975-11.975h70.374Z"/>
          <path class="cls-7" d="M658.056,458.108c6.061,0,10.974,4.913,10.974,10.974s-4.913,10.974-10.974,10.974h-70.374c-6.061,0-10.974-4.913-10.974-10.974s4.913-10.974,10.974-10.974h70.374M658.056,456.108h-70.374c-7.154,0-12.974,5.82-12.974,12.974s5.82,12.974,12.974,12.974h70.374c7.154,0,12.974-5.82,12.974-12.974s-5.82-12.974-12.974-12.974h0Z"/>
        </g>
        <g>
          <path class="cls-1" d="M609.727,463.5h2.352l2.57,6.795c.055.146.104.29.146.431.044.142.081.29.113.444h.048c.032-.154.069-.303.112-.444.044-.141.093-.284.147-.431l2.577-6.795h2.379v9.953h-1.812v-6.631c0-.146.003-.309.011-.488.006-.18.019-.343.037-.489h-.055c-.027.146-.064.31-.113.489-.047.18-.099.343-.153.488l-2.502,6.631h-1.524l-2.495-6.631c-.055-.146-.106-.309-.153-.488-.049-.18-.086-.343-.113-.489h-.055c.019.146.029.31.034.489s.007.343.007.488v6.631h-1.559v-9.953h.001Z"/>
          <path class="cls-1" d="M622.689,463.493c.183-.187.444-.28.786-.28s.604.094.786.28c.183.188.273.42.273.697s-.093.512-.276.701c-.186.188-.448.283-.79.283-.337,0-.597-.095-.779-.283-.183-.189-.273-.423-.273-.701s.091-.51.273-.697h0ZM622.58,466.248h1.784v7.205h-1.784v-7.205Z"/>
          <path class="cls-1" d="M627.145,469.554c.607-.403,1.375-.605,2.3-.605h1.47v-.438c0-.355-.092-.646-.277-.871-.184-.226-.509-.339-.974-.339s-.794.094-.987.28c-.194.188-.291.408-.291.663v.082h-1.757v-.082c0-.619.285-1.142.854-1.565s1.319-.636,2.249-.636,1.655.204,2.177.612c.522.407.783,1.028.783,1.862v3.309c0,.297.025.576.075.838s.118.488.205.68v.109h-1.736c-.06-.109-.111-.25-.157-.424-.046-.173-.075-.344-.089-.513-.15.278-.419.526-.807.745s-.877.328-1.47.328c-.697,0-1.285-.189-1.764-.57s-.718-.942-.718-1.686c0-.783.304-1.377.913-1.78h0ZM628.317,472.021c.2.207.518.311.95.311.451,0,.839-.147,1.162-.444.323-.296.485-.636.485-1.019v-.8h-1.237c-.556,0-.972.099-1.247.294-.276.196-.414.472-.414.827,0,.347.101.624.301.831Z"/>
          <path class="cls-1" d="M634.915,466.248h1.668l.048.854h.041c.224-.314.515-.558.875-.731.36-.173.75-.26,1.169-.26.497,0,.928.102,1.292.305s.634.512.807.926h.034c.26-.414.592-.723.994-.926.404-.203.84-.305,1.31-.305.733,0,1.318.221,1.753.66.436.439.653,1.175.653,2.204v4.478h-1.777v-4.566c0-.479-.101-.828-.301-1.049s-.494-.332-.882-.332c-.333-.004-.624.087-.875.273-.251.188-.449.44-.595.759v4.915h-1.784v-4.553c0-.487-.102-.842-.305-1.062-.202-.221-.497-.332-.885-.332-.337,0-.629.092-.875.273-.246.183-.442.436-.588.759v4.915h-1.777v-7.205h0Z"/>
          <path class="cls-1" d="M647.85,463.493c.183-.187.444-.28.786-.28s.604.094.786.28c.183.188.273.42.273.697s-.093.512-.276.701c-.186.188-.448.283-.79.283-.337,0-.597-.095-.779-.283-.183-.189-.273-.423-.273-.701s.091-.51.273-.697h0ZM647.741,466.248h1.784v7.205h-1.784v-7.205Z"/>
        </g>
        <g>
          <g>
            <path class="cls-7" d="M587.717,474.002c-2.904.02-5.275-2.319-5.295-5.223-.02-2.904,2.319-5.275,5.223-5.295,2.904-.02,5.275,2.319,5.295,5.223.02,2.904-2.318,5.275-5.223,5.295Z"/>
            <path class="cls-8" d="M587.608,458.108c-6.061.042-10.941,4.988-10.899,11.049.042,6.06,11.143,24.576,11.143,24.576,0,0,10.846-18.666,10.805-24.727-.042-6.061-4.989-10.94-11.049-10.899h0Z"/>
            <path class="cls-9" d="M587.68,463.484c2.904,0,5.259,2.355,5.259,5.259s-2.355,5.259-5.259,5.259-5.259-2.355-5.259-5.259,2.355-5.259,5.259-5.259Z"/>
          </g>
          <path class="cls-3" d="M587.608,458.108c-6.061.042-10.941,4.988-10.899,11.049.042,6.06,11.143,24.576,11.143,24.576,0,0,10.846-18.666,10.805-24.727-.042-6.061-4.989-10.94-11.049-10.899h0ZM587.717,474.002c-2.904.02-5.275-2.319-5.295-5.223-.02-2.904,2.319-5.275,5.223-5.295,2.904-.02,5.275,2.319,5.295,5.223.02,2.904-2.318,5.275-5.223,5.295Z"/>
          <path class="cls-5" d="M582.566,484.24c2.687,5.161,5.286,9.494,5.286,9.494,0,0,7.952-13.686,10.212-21.425-2.493,6.418-10.227,12.013-15.498,11.931Z"/>
        </g>
        <g>
          <path class="cls-6" d="M622.466,509.296c-.83-2.564-2.803-4.787-5.313-6.403-2.72-1.752-6.031-2.56-9.315-3.281-3.462-.76-6.975-1.36-10.495-1.904-1.774-.274-3.552-.531-5.333-.771-1.366-.184-2.703-.406-3.991.157-1.709.747-1.147,2.068-.9,3.372.277,1.463.608,2.92.992,4.367.805,3.032,1.814,6.062,3.31,8.914.717,1.367,1.546,2.741,2.697,3.897,1.233,1.239,2.869,2.243,4.557,3.015,3.06,1.399,6.596,2.055,10.083,1.911,3.578-.148,7.15-1.152,9.869-3.127,2.703-1.964,4.365-4.803,4.262-7.805-.027-.792-.177-1.576-.421-2.341h-.002Z"/>
          <path class="cls-4" d="M618.917,508.716c1.043,3.155-.568,6.389-3.704,8.284-3.049,1.842-7.116,2.325-10.759,1.69-3.846-.671-7.071-2.495-8.983-5.351-1.637-2.446-2.754-5.138-3.724-7.809-.838-2.308-2.172-7.278-2.202-7.409,3.918.463,7.825,1.136,11.691,1.835,2.2.398,4.394.827,6.562,1.335,2.119.497,4.35,1.013,6.202,2.03,2.316,1.272,4.176,3.15,4.916,5.394h0Z"/>
        </g>
      </g>
    </g>
  </g>
</svg>