<?xml version="1.0" encoding="UTF-8"?>
<svg id="Layer_1" data-name="Layer 1" xmlns="http://www.w3.org/2000/svg" xmlns:xlink="http://www.w3.org/1999/xlink" version="1.1" viewBox="0 0 1840.953 768">
  <defs>
    <style>
      .cls-1 {
        fill: url(#linear-gradient);
      }

      .cls-1, .cls-2, .cls-3, .cls-4, .cls-5, .cls-6 {
        stroke-width: 0px;
      }

      .cls-7 {
        stroke: url(#linear-gradient-5);
      }

      .cls-7, .cls-8 {
        stroke-linecap: round;
        stroke-linejoin: round;
        stroke-width: 4.302px;
      }

      .cls-7, .cls-8, .cls-6 {
        fill: #fff;
      }

      .cls-8 {
        stroke: url(#linear-gradient-4);
      }

      .cls-2 {
        fill: url(#linear-gradient-2);
      }

      .cls-3 {
        fill: url(#linear-gradient-3);
      }

      .cls-4 {
        fill: url(#linear-gradient-7);
      }

      .cls-5 {
        fill: url(#linear-gradient-6);
      }

      .cls-9 {
        isolation: isolate;
      }
    </style>
    <linearGradient id="linear-gradient" x1="504.245" y1="589.649" x2="529.203" y2="617.367" gradientUnits="userSpaceOnUse">
      <stop offset="0" stop-color="#021" stop-opacity=".2"/>
      <stop offset=".559" stop-color="#000101" stop-opacity=".012"/>
      <stop offset="1" stop-color="#000" stop-opacity="0"/>
    </linearGradient>
    <linearGradient id="linear-gradient-2" x1="506.026" y1="590.638" x2="527.025" y2="613.961" gradientUnits="userSpaceOnUse">
      <stop offset="0" stop-color="#021" stop-opacity=".2"/>
      <stop offset="1" stop-color="#000" stop-opacity="0"/>
    </linearGradient>
    <linearGradient id="linear-gradient-3" x1="425.128" y1="566.169" x2="513.296" y2="566.169" gradientUnits="userSpaceOnUse">
      <stop offset="0" stop-color="#ff936f"/>
      <stop offset="1" stop-color="#cc0059"/>
    </linearGradient>
    <linearGradient id="linear-gradient-4" x1="512.587" y1="586.899" x2="494.232" y2="555.105" gradientUnits="userSpaceOnUse">
      <stop offset="0" stop-color="#4d4d4d"/>
      <stop offset="1" stop-color="#fff"/>
    </linearGradient>
    <linearGradient id="linear-gradient-5" x1="3170.203" y1="-8970.201" x2="3162.791" y2="-8983.036" gradientTransform="translate(3729.298 -8388.888) rotate(-179.607)" gradientUnits="userSpaceOnUse">
      <stop offset="0" stop-color="#4d4d4d"/>
      <stop offset="1" stop-color="#fff"/>
    </linearGradient>
    <linearGradient id="linear-gradient-6" x1="488.482" y1="567.116" x2="510.431" y2="567.116" gradientTransform="translate(-1.985 9.349) rotate(-.395)" gradientUnits="userSpaceOnUse">
      <stop offset="0" stop-color="#ff936f"/>
      <stop offset="1" stop-color="#cc0059"/>
    </linearGradient>
    <linearGradient id="linear-gradient-7" x1="495.787" y1="581.209" x2="511.714" y2="565.5" gradientTransform="translate(-1.985 9.349) rotate(-.395)" gradientUnits="userSpaceOnUse">
      <stop offset="0" stop-color="#fff" stop-opacity=".2"/>
      <stop offset="1" stop-color="#fff" stop-opacity="0"/>
    </linearGradient>
  </defs>
  <g class="cls-9">
    <g id="cities">
      <g>
        <g>
          <path class="cls-1" d="M535.412,604.995c-.83-2.564-2.803-4.787-5.313-6.403-2.72-1.752-6.031-2.56-9.315-3.281-3.462-.76-6.975-1.36-10.495-1.904-1.774-.274-3.552-.531-5.333-.771-1.366-.184-2.703-.406-3.991.157-1.709.747-1.147,2.068-.9,3.372.277,1.463.608,2.92.992,4.367.805,3.032,1.814,6.062,3.31,8.914.717,1.367,1.546,2.741,2.697,3.897,1.233,1.239,2.869,2.243,4.557,3.015,3.06,1.399,6.596,2.055,10.083,1.911,3.578-.148,7.15-1.152,9.869-3.127,2.703-1.964,4.365-4.803,4.262-7.805-.027-.792-.177-1.576-.421-2.341h-.002Z"/>
          <path class="cls-2" d="M531.863,604.416c1.043,3.155-.568,6.389-3.704,8.284-3.049,1.842-7.116,2.325-10.759,1.69-3.846-.671-7.071-2.495-8.983-5.351-1.637-2.446-2.754-5.138-3.724-7.809-.838-2.308-2.172-7.278-2.202-7.409,3.918.463,7.825,1.136,11.691,1.835,2.2.398,4.394.827,6.562,1.335,2.119.497,4.35,1.013,6.202,2.03,2.316,1.272,4.176,3.15,4.916,5.394h0Z"/>
        </g>
        <g>
          <path class="cls-3" d="M437.102,578.144c-6.603,0-11.974-5.371-11.974-11.974s5.372-11.975,11.974-11.975h64.22c6.603,0,11.974,5.372,11.974,11.975s-5.372,11.974-11.974,11.974h-64.22Z"/>
          <path class="cls-6" d="M501.323,555.196c6.061,0,10.974,4.913,10.974,10.974s-4.913,10.974-10.974,10.974h-64.22c-6.061,0-10.974-4.913-10.974-10.974s4.913-10.974,10.974-10.974h64.22M501.323,553.196h-64.22c-7.154,0-12.974,5.82-12.974,12.974s5.82,12.974,12.974,12.974h64.22c7.154,0,12.974-5.82,12.974-12.974s-5.82-12.974-12.974-12.974h0Z"/>
        </g>
        <g>
          <path class="cls-6" d="M438.525,560.588h8.019v1.593h-2.96v8.36h-2.099v-8.36h-2.96v-1.593h0Z"/>
          <path class="cls-6" d="M447.105,563.329h2.037v4.471c0,.497.101.841.301,1.032s.474.287.82.287c.31,0,.587-.09.83-.27.244-.18.428-.404.551-.674v-4.847h2.03v7.212h-1.928l-.048-.807h-.034c-.21.292-.499.523-.868.694s-.779.256-1.23.256c-.72,0-1.311-.227-1.771-.68-.46-.454-.69-1.211-.69-2.273v-4.402h0Z"/>
          <path class="cls-6" d="M455.816,560.075h2.037v10.466h-2.037v-10.466Z"/>
          <path class="cls-6" d="M459.932,563.329h2.037v4.471c0,.497.101.841.301,1.032s.474.287.82.287c.31,0,.587-.09.83-.27.244-.18.428-.404.551-.674v-4.847h2.03v7.212h-1.928l-.048-.807h-.034c-.21.292-.499.523-.868.694s-.779.256-1.23.256c-.72,0-1.311-.227-1.771-.68-.46-.454-.69-1.211-.69-2.273v-4.402h0Z"/>
          <path class="cls-6" d="M468.63,563.329h1.928l.041.82h.041c.214-.31.5-.548.857-.714.358-.166.74-.25,1.146-.25.501,0,.938.106,1.31.318.371.212.644.522.816.933h.027c.241-.41.574-.721.998-.933s.868-.318,1.333-.318c.725,0,1.31.229,1.753.684.445.456.667,1.215.667,2.276v4.396h-2.037v-4.519c0-.433-.089-.753-.267-.96s-.442-.312-.793-.312c-.306-.004-.573.079-.803.25s-.412.406-.544.707v4.833h-2.037v-4.498c0-.441-.09-.768-.271-.978-.18-.209-.449-.314-.81-.314-.306,0-.569.082-.793.246s-.401.401-.533.711v4.833h-2.03v-7.212h.001Z"/>
        </g>
        <g>
          <g>
            <path class="cls-6" d="M501.356,571.089c-2.904.02-5.275-2.319-5.295-5.223-.02-2.904,2.319-5.275,5.223-5.295,2.904-.02,5.275,2.319,5.295,5.223.02,2.904-2.318,5.275-5.223,5.295Z"/>
            <path class="cls-8" d="M501.247,555.196c-6.061.042-10.941,4.988-10.899,11.049.042,6.06,11.143,24.576,11.143,24.576,0,0,10.846-18.666,10.805-24.727-.042-6.061-4.989-10.94-11.049-10.899h0Z"/>
            <path class="cls-7" d="M501.32,560.571c2.904,0,5.259,2.355,5.259,5.259s-2.355,5.259-5.259,5.259-5.259-2.355-5.259-5.259,2.355-5.259,5.259-5.259Z"/>
          </g>
          <path class="cls-5" d="M501.247,555.196c-6.061.042-10.941,4.988-10.899,11.049.042,6.06,11.143,24.576,11.143,24.576,0,0,10.846-18.666,10.805-24.727-.042-6.061-4.989-10.94-11.049-10.899h0ZM501.356,571.089c-2.904.02-5.275-2.319-5.295-5.223-.02-2.904,2.319-5.275,5.223-5.295,2.904-.02,5.275,2.319,5.295,5.223.02,2.904-2.318,5.275-5.223,5.295Z"/>
          <path class="cls-4" d="M496.206,581.327c2.687,5.161,5.286,9.494,5.286,9.494,0,0,7.952-13.686,10.212-21.425-2.494,6.418-10.227,12.013-15.498,11.931h0Z"/>
        </g>
      </g>
    </g>
  </g>
</svg>