<?xml version="1.0" encoding="UTF-8"?>
<svg id="Layer_1" data-name="Layer 1" xmlns="http://www.w3.org/2000/svg" xmlns:xlink="http://www.w3.org/1999/xlink" version="1.1" viewBox="0 0 1840.953 768">
  <defs>
    <style>
      .cls-1 {
        fill: url(#linear-gradient);
      }

      .cls-1, .cls-2, .cls-3, .cls-4, .cls-5, .cls-6 {
        stroke-width: 0px;
      }

      .cls-7 {
        stroke: url(#linear-gradient-2);
      }

      .cls-7, .cls-8 {
        stroke-linecap: round;
        stroke-linejoin: round;
        stroke-width: 4.302px;
      }

      .cls-7, .cls-8, .cls-6 {
        fill: #fff;
      }

      .cls-8 {
        stroke: url(#linear-gradient-3);
      }

      .cls-2 {
        fill: url(#linear-gradient-4);
      }

      .cls-3 {
        fill: url(#linear-gradient-7);
      }

      .cls-4 {
        fill: url(#linear-gradient-5);
      }

      .cls-5 {
        fill: url(#linear-gradient-6);
      }

      .cls-9 {
        isolation: isolate;
      }
    </style>
    <linearGradient id="linear-gradient" x1="435.304" y1="242.695" x2="534.473" y2="242.695" gradientTransform="translate(0 768) scale(1 -1)" gradientUnits="userSpaceOnUse">
      <stop offset="0" stop-color="#ff936f"/>
      <stop offset="1" stop-color="#cc0059"/>
    </linearGradient>
    <linearGradient id="linear-gradient-2" x1="533.763" y1="221.967" x2="515.408" y2="253.76" gradientTransform="translate(0 768) scale(1 -1)" gradientUnits="userSpaceOnUse">
      <stop offset="0" stop-color="#4d4d4d"/>
      <stop offset="1" stop-color="#fff"/>
    </linearGradient>
    <linearGradient id="linear-gradient-3" x1="2252.603" y1="9451.544" x2="2245.192" y2="9464.379" gradientTransform="translate(3260.571 -9158.495) rotate(-179.607) scale(1 -1)" gradientUnits="userSpaceOnUse">
      <stop offset="0" stop-color="#4d4d4d"/>
      <stop offset="1" stop-color="#fff"/>
    </linearGradient>
    <linearGradient id="linear-gradient-4" x1="509.933" y1="239.968" x2="531.882" y2="239.968" gradientTransform="translate(3.304 775.697) rotate(-.395) scale(1 -1)" gradientUnits="userSpaceOnUse">
      <stop offset="0" stop-color="#ff936f"/>
      <stop offset="1" stop-color="#cc0059"/>
    </linearGradient>
    <linearGradient id="linear-gradient-5" x1="517.238" y1="225.875" x2="533.165" y2="241.584" gradientTransform="translate(3.304 775.697) rotate(-.395) scale(1 -1)" gradientUnits="userSpaceOnUse">
      <stop offset="0" stop-color="#fff" stop-opacity=".2"/>
      <stop offset="1" stop-color="#fff" stop-opacity="0"/>
    </linearGradient>
    <linearGradient id="linear-gradient-6" x1="525.421" y1="219.215" x2="550.379" y2="191.497" gradientTransform="translate(0 768) scale(1 -1)" gradientUnits="userSpaceOnUse">
      <stop offset="0" stop-color="#021" stop-opacity=".2"/>
      <stop offset=".559" stop-color="#000101" stop-opacity=".012"/>
      <stop offset="1" stop-color="#000" stop-opacity="0"/>
    </linearGradient>
    <linearGradient id="linear-gradient-7" x1="527.202" y1="218.227" x2="548.201" y2="194.904" gradientTransform="translate(0 768) scale(1 -1)" gradientUnits="userSpaceOnUse">
      <stop offset="0" stop-color="#021" stop-opacity=".2"/>
      <stop offset="1" stop-color="#000" stop-opacity="0"/>
    </linearGradient>
  </defs>
  <g class="cls-9">
    <g id="cities">
      <g>
        <g>
          <path class="cls-1" d="M447.278,537.279c-6.603,0-11.974-5.372-11.974-11.975s5.372-11.974,11.974-11.974h75.22c6.603,0,11.975,5.371,11.975,11.974s-5.372,11.975-11.975,11.975h-75.22Z"/>
          <path class="cls-6" d="M522.498,514.331c6.061,0,10.974,4.913,10.974,10.974s-4.913,10.974-10.974,10.974h-75.22c-6.061,0-10.974-4.913-10.974-10.974s4.913-10.974,10.974-10.974h75.22M522.498,512.331h-75.22c-7.154,0-12.974,5.82-12.974,12.974s5.82,12.974,12.974,12.974h75.22c7.154,0,12.974-5.82,12.974-12.974s-5.82-12.974-12.974-12.974h0Z"/>
        </g>
        <g>
          <path class="cls-6" d="M450.136,524.393c0-1.596.411-2.805,1.233-3.63.823-.825,1.896-1.237,3.217-1.237,1.253,0,2.247.328,2.98.984s1.101,1.497,1.101,2.522v.164h-2.119v-.191c0-.597-.164-1.058-.492-1.381s-.825-.485-1.49-.485c-.679,0-1.228.233-1.644.7-.418.468-.626,1.241-.626,2.321v1.08c0,.998.204,1.752.612,2.263.407.511.969.766,1.685.766.634,0,1.109-.172,1.429-.517.319-.344.494-.799.526-1.363v-.178h2.119v.178c-.046,1.012-.424,1.846-1.135,2.502s-1.693.984-2.946.984c-1.331,0-2.405-.416-3.223-1.248-.818-.831-1.228-2.038-1.228-3.619v-.615h.001Z"/>
          <path class="cls-6" d="M460.845,525.739c.623-.401,1.403-.604,2.342-.608h1.395v-.403c0-.319-.083-.579-.25-.779-.166-.2-.459-.301-.878-.301-.424,0-.724.082-.899.246s-.263.366-.263.608v.103h-2.003v-.103c0-.652.302-1.188.906-1.61.604-.421,1.384-.632,2.341-.632.962,0,1.715.201,2.259.604.545.403.817,1.026.817,1.87v3.329c0,.292.027.569.082.834s.125.487.212.67v.109h-1.996c-.055-.104-.104-.243-.146-.414-.044-.171-.072-.336-.086-.495-.137.269-.403.509-.8.721s-.889.318-1.477.318c-.702,0-1.292-.188-1.771-.561-.479-.374-.718-.939-.718-1.695,0-.807.312-1.41.933-1.812h0ZM462.223,528.139c.183.195.474.294.875.294.429,0,.782-.136,1.063-.407.279-.271.42-.596.42-.974v-.684h-1.114c-.515,0-.896.087-1.146.26-.248.173-.372.421-.372.745,0,.314.091.569.273.766h.001Z"/>
          <path class="cls-6" d="M468.781,522.465h1.928l.048.807h.034c.187-.278.464-.507.83-.688.367-.18.771-.27,1.214-.27.743,0,1.348.211,1.815.632.467.422.7,1.161.7,2.219v4.512h-2.03v-4.573c0-.451-.097-.767-.291-.947-.193-.18-.468-.27-.823-.27-.292,0-.563.083-.817.249-.252.167-.445.4-.577.701v4.84h-2.03v-7.212h-.001Z"/>
          <path class="cls-6" d="M477.019,525.958c0-1.14.335-2.042,1.005-2.707s1.557-.998,2.659-.998c1.048,0,1.847.262,2.396.786.55.523.843,1.144.879,1.859l.014.123h-1.982v-.089c0-.333-.109-.61-.328-.834s-.549-.335-.991-.335c-.52,0-.911.188-1.176.563s-.396.881-.396,1.515v.451c0,.633.128,1.139.383,1.518.255.378.649.567,1.183.567.487,0,.829-.12,1.025-.359s.294-.514.294-.823v-.075h1.982v.082c0,.716-.285,1.341-.854,1.876-.569.536-1.379.804-2.427.804-1.103,0-1.989-.333-2.659-.998s-1.005-1.567-1.005-2.707v-.219h-.002Z"/>
          <path class="cls-6" d="M485.464,522.465h2.037v4.471c0,.496.101.841.301,1.032s.474.287.82.287c.31,0,.587-.09.83-.271.244-.18.428-.404.551-.673v-4.847h2.03v7.212h-1.928l-.048-.807h-.034c-.21.292-.499.522-.868.693s-.779.257-1.23.257c-.72,0-1.311-.227-1.771-.681-.46-.453-.69-1.211-.69-2.272v-4.402h0Z"/>
          <path class="cls-6" d="M494.16,522.465h1.928l.048.807h.034c.187-.278.464-.507.83-.688.367-.18.771-.27,1.214-.27.743,0,1.348.211,1.815.632.467.422.7,1.161.7,2.219v4.512h-2.03v-4.573c0-.451-.097-.767-.291-.947-.193-.18-.468-.27-.823-.27-.292,0-.563.083-.817.249-.252.167-.445.4-.577.701v4.84h-2.03v-7.212h-.001Z"/>
        </g>
        <g>
          <g>
            <path class="cls-6" d="M522.532,530.225c-2.904.02-5.275-2.319-5.295-5.223-.02-2.904,2.319-5.275,5.223-5.295,2.904-.02,5.275,2.319,5.295,5.223.02,2.904-2.318,5.275-5.223,5.295Z"/>
            <path class="cls-7" d="M522.423,514.331c-6.061.042-10.941,4.988-10.899,11.049.042,6.06,11.143,24.576,11.143,24.576,0,0,10.846-18.666,10.805-24.727-.042-6.061-4.989-10.94-11.049-10.899h0Z"/>
            <path class="cls-8" d="M522.496,519.706c2.904,0,5.259,2.355,5.259,5.259s-2.355,5.259-5.259,5.259-5.259-2.355-5.259-5.259,2.355-5.259,5.259-5.259Z"/>
          </g>
          <path class="cls-2" d="M522.423,514.331c-6.061.042-10.941,4.988-10.899,11.049.042,6.06,11.143,24.576,11.143,24.576,0,0,10.846-18.666,10.805-24.727-.042-6.061-4.989-10.94-11.049-10.899h0ZM522.532,530.224c-2.904.02-5.275-2.319-5.295-5.223-.02-2.904,2.319-5.275,5.223-5.295,2.904-.02,5.275,2.319,5.295,5.223.02,2.904-2.318,5.275-5.223,5.295Z"/>
          <path class="cls-4" d="M517.382,540.462c2.687,5.161,5.286,9.494,5.286,9.494,0,0,7.952-13.686,10.212-21.425-2.494,6.418-10.227,12.013-15.498,11.931h0Z"/>
        </g>
        <g>
          <path class="cls-5" d="M556.588,564.131c-.83-2.564-2.803-4.787-5.313-6.403-2.72-1.752-6.031-2.56-9.315-3.281-3.462-.76-6.975-1.36-10.495-1.904-1.774-.274-3.552-.531-5.333-.771-1.366-.184-2.703-.406-3.991.157-1.709.747-1.147,2.068-.9,3.372.277,1.463.608,2.92.992,4.367.805,3.032,1.814,6.062,3.31,8.914.717,1.367,1.546,2.741,2.697,3.897,1.233,1.239,2.869,2.243,4.557,3.015,3.06,1.399,6.596,2.055,10.083,1.911,3.578-.148,7.15-1.152,9.869-3.127,2.703-1.964,4.365-4.803,4.262-7.805-.027-.792-.177-1.576-.421-2.341h-.002Z"/>
          <path class="cls-3" d="M553.039,563.551c1.043,3.155-.568,6.389-3.704,8.284-3.049,1.842-7.116,2.325-10.759,1.69-3.846-.671-7.071-2.495-8.983-5.351-1.637-2.446-2.754-5.138-3.724-7.809-.838-2.308-2.172-7.278-2.202-7.409,3.918.463,7.825,1.136,11.691,1.835,2.2.398,4.394.827,6.562,1.335,2.119.497,4.35,1.013,6.202,2.03,2.316,1.272,4.176,3.15,4.916,5.394h0Z"/>
        </g>
      </g>
    </g>
  </g>
</svg>