<?xml version="1.0" encoding="UTF-8"?>
<svg id="Layer_1" data-name="Layer 1" xmlns="http://www.w3.org/2000/svg" xmlns:xlink="http://www.w3.org/1999/xlink" version="1.1" viewBox="0 0 1840.953 768">
  <defs>
    <style>
      .cls-1 {
        fill: url(#linear-gradient);
      }

      .cls-1, .cls-2, .cls-3, .cls-4, .cls-5, .cls-6 {
        stroke-width: 0px;
      }

      .cls-7 {
        stroke: url(#linear-gradient-5);
      }

      .cls-7, .cls-8 {
        stroke-linecap: round;
        stroke-linejoin: round;
        stroke-width: 4.302px;
      }

      .cls-7, .cls-8, .cls-6 {
        fill: #fff;
      }

      .cls-8 {
        stroke: url(#linear-gradient-4);
      }

      .cls-2 {
        fill: url(#linear-gradient-2);
      }

      .cls-3 {
        fill: url(#linear-gradient-3);
      }

      .cls-4 {
        fill: url(#linear-gradient-7);
      }

      .cls-5 {
        fill: url(#linear-gradient-6);
      }

      .cls-9 {
        isolation: isolate;
      }
    </style>
    <linearGradient id="linear-gradient" x1="1177.093" y1="447.034" x2="1202.051" y2="419.316" gradientTransform="translate(0 768) scale(1 -1)" gradientUnits="userSpaceOnUse">
      <stop offset="0" stop-color="#021" stop-opacity=".2"/>
      <stop offset=".559" stop-color="#000101" stop-opacity=".012"/>
      <stop offset="1" stop-color="#000" stop-opacity="0"/>
    </linearGradient>
    <linearGradient id="linear-gradient-2" x1="1178.874" y1="446.045" x2="1199.873" y2="422.722" gradientTransform="translate(0 768) scale(1 -1)" gradientUnits="userSpaceOnUse">
      <stop offset="0" stop-color="#021" stop-opacity=".2"/>
      <stop offset="1" stop-color="#000" stop-opacity="0"/>
    </linearGradient>
    <linearGradient id="linear-gradient-3" x1="2669.673" y1="9833.185" x2="2781.298" y2="9833.185" gradientTransform="translate(3943.494 -9535.698) rotate(-180) scale(1 -1)" gradientUnits="userSpaceOnUse">
      <stop offset="0" stop-color="#ff44f4"/>
      <stop offset="1" stop-color="#8b3dd6"/>
    </linearGradient>
    <linearGradient id="linear-gradient-4" x1="1185.435" y1="449.785" x2="1167.08" y2="481.577" gradientTransform="translate(0 768) scale(1 -1)" gradientUnits="userSpaceOnUse">
      <stop offset="0" stop-color="#4d4d4d"/>
      <stop offset="1" stop-color="#fff"/>
    </linearGradient>
    <linearGradient id="linear-gradient-5" x1="1896.613" y1="9389.07" x2="1889.202" y2="9401.906" gradientTransform="translate(3260.571 -9158.495) rotate(-179.607) scale(1 -1)" gradientUnits="userSpaceOnUse">
      <stop offset="0" stop-color="#4d4d4d"/>
      <stop offset="1" stop-color="#fff"/>
    </linearGradient>
    <linearGradient id="linear-gradient-6" x1="1163.131" y1="463.288" x2="1185.079" y2="463.288" gradientTransform="translate(3.304 775.697) rotate(-.395) scale(1 -1)" gradientUnits="userSpaceOnUse">
      <stop offset="0" stop-color="#ff44f4"/>
      <stop offset="1" stop-color="#8b3dd6"/>
    </linearGradient>
    <linearGradient id="linear-gradient-7" x1="1170.464" y1="449.195" x2="1186.392" y2="464.904" gradientTransform="translate(3.304 775.697) rotate(-.395) scale(1 -1)" gradientUnits="userSpaceOnUse">
      <stop offset="0" stop-color="#fff" stop-opacity=".2"/>
      <stop offset="1" stop-color="#fff" stop-opacity="0"/>
    </linearGradient>
  </defs>
  <g class="cls-9">
    <g id="cities">
      <g>
        <g>
          <path class="cls-1" d="M1208.26,336.312c-.83-2.564-2.803-4.787-5.313-6.403-2.72-1.752-6.031-2.56-9.315-3.281-3.462-.76-6.975-1.36-10.495-1.904-1.774-.274-3.552-.531-5.333-.771-1.366-.184-2.703-.406-3.991.157-1.709.747-1.147,2.068-.9,3.372.277,1.463.608,2.92.992,4.367.805,3.032,1.814,6.062,3.31,8.914.717,1.367,1.546,2.741,2.697,3.897,1.233,1.239,2.869,2.243,4.557,3.015,3.06,1.399,6.596,2.055,10.083,1.911,3.578-.148,7.15-1.152,9.869-3.127,2.703-1.964,4.365-4.803,4.262-7.805-.027-.792-.177-1.576-.421-2.341h-.002Z"/>
          <path class="cls-2" d="M1204.711,335.733c1.043,3.155-.568,6.389-3.704,8.284-3.049,1.842-7.116,2.325-10.759,1.69-3.846-.671-7.071-2.495-8.983-5.351-1.637-2.446-2.754-5.138-3.724-7.809-.838-2.308-2.172-7.278-2.202-7.409,3.918.463,7.825,1.136,11.691,1.835,2.2.398,4.394.827,6.562,1.335,2.119.497,4.35,1.013,6.202,2.03,2.316,1.272,4.176,3.15,4.916,5.394h0Z"/>
        </g>
        <g>
          <path class="cls-3" d="M1174.17,309.461c-6.603,0-11.974-5.372-11.974-11.974s5.371-11.975,11.974-11.975h87.677c6.603,0,11.974,5.372,11.974,11.975s-5.371,11.974-11.974,11.974h-87.677Z"/>
          <path class="cls-6" d="M1261.846,286.512c6.061,0,10.974,4.913,10.974,10.974h0c0,6.061-4.913,10.974-10.974,10.974h-87.676c-6.061,0-10.974-4.913-10.974-10.974h0c0-6.061,4.913-10.974,10.974-10.974h87.676M1261.846,284.512h-87.676c-7.154,0-12.974,5.82-12.974,12.974s5.82,12.974,12.974,12.974h87.676c7.154,0,12.974-5.82,12.974-12.974s-5.82-12.974-12.974-12.974h0Z"/>
        </g>
        <g>
          <path class="cls-6" d="M1195.798,296.573c0-1.595.411-2.805,1.233-3.63.823-.824,1.896-1.237,3.217-1.237,1.253,0,2.247.328,2.98.984s1.101,1.497,1.101,2.522v.164h-2.119v-.191c0-.597-.164-1.057-.492-1.381-.328-.323-.825-.485-1.49-.485-.679,0-1.228.234-1.644.701-.418.467-.626,1.24-.626,2.32v1.08c0,.998.204,1.753.612,2.263.407.511.969.766,1.685.766.634,0,1.109-.172,1.429-.516.319-.344.494-.799.526-1.364v-.178h2.119v.178c-.046,1.012-.424,1.846-1.135,2.502s-1.693.984-2.946.984c-1.331,0-2.405-.416-3.223-1.247-.818-.832-1.228-2.038-1.228-3.62v-.615h0Z"/>
          <path class="cls-6" d="M1206.507,297.92c.623-.4,1.403-.604,2.342-.608h1.395v-.403c0-.318-.083-.578-.25-.779-.166-.2-.459-.301-.878-.301-.424,0-.724.082-.899.246s-.263.367-.263.608v.103h-2.003v-.103c0-.651.302-1.188.906-1.609.604-.422,1.384-.633,2.341-.633.962,0,1.715.202,2.259.605.545.403.817,1.026.817,1.869v3.329c0,.292.027.57.082.834.055.265.125.488.212.67v.109h-1.996c-.055-.104-.104-.242-.146-.413-.044-.171-.072-.336-.086-.496-.137.27-.403.51-.8.722s-.889.317-1.477.317c-.702,0-1.292-.187-1.771-.561-.479-.373-.718-.938-.718-1.695,0-.807.312-1.41.933-1.812h0ZM1207.885,300.319c.183.196.474.294.875.294.429,0,.782-.135,1.063-.406.279-.271.42-.596.42-.975v-.684h-1.114c-.515,0-.896.087-1.146.26-.248.174-.372.422-.372.745,0,.314.091.57.273.766h0Z"/>
          <path class="cls-6" d="M1214.456,291.392h2.037v10.466h-2.037v-10.466Z"/>
          <path class="cls-6" d="M1219.211,297.92c.623-.4,1.403-.604,2.342-.608h1.395v-.403c0-.318-.083-.578-.25-.779-.166-.2-.459-.301-.878-.301-.424,0-.724.082-.899.246s-.263.367-.263.608v.103h-2.003v-.103c0-.651.302-1.188.906-1.609.604-.422,1.384-.633,2.341-.633.962,0,1.715.202,2.259.605.545.403.817,1.026.817,1.869v3.329c0,.292.027.57.082.834.055.265.125.488.212.67v.109h-1.996c-.055-.104-.104-.242-.146-.413-.044-.171-.072-.336-.086-.496-.137.27-.403.51-.8.722s-.889.317-1.477.317c-.702,0-1.292-.187-1.771-.561-.479-.373-.718-.938-.718-1.695,0-.807.312-1.41.933-1.812h0ZM1220.589,300.319c.183.196.474.294.875.294.429,0,.782-.135,1.063-.406.279-.271.42-.596.42-.975v-.684h-1.114c-.515,0-.896.087-1.146.26-.248.174-.372.422-.372.745,0,.314.091.57.273.766h0Z"/>
          <path class="cls-6" d="M1227.146,291.392h2.03v3.992c.228-.282.512-.5.851-.652.34-.153.733-.229,1.18-.229.93,0,1.667.336,2.211,1.009.545.672.817,1.546.817,2.621v.219c0,1.085-.273,1.963-.82,2.636-.547.672-1.285,1.008-2.215,1.008-.446,0-.861-.089-1.244-.267s-.649-.403-.8-.677h-.041l-.041.807h-1.928v-10.466h0ZM1229.707,300.142c.248.21.568.314.96.314.506,0,.881-.185,1.124-.554.244-.369.366-.85.366-1.442v-.417c0-.592-.121-1.073-.362-1.442s-.622-.554-1.142-.554c-.378,0-.692.105-.943.314-.251.21-.429.449-.533.718v2.338c.104.273.281.516.53.725h0Z"/>
          <path class="cls-6" d="M1235.972,294.646h1.935l.048.786h.034c.142-.269.34-.5.595-.693.255-.194.542-.291.861-.291.091,0,.186.012.283.034.099.023.168.044.209.062v1.757c-.082-.018-.168-.033-.256-.044-.09-.012-.188-.018-.298-.018-.31,0-.588.093-.834.277s-.426.418-.54.7v4.642h-2.037v-7.212h0Z"/>
          <path class="cls-6" d="M1241.561,291.87c.208-.209.503-.314.886-.314s.677.105.882.314c.205.21.308.47.308.779s-.104.57-.312.779c-.207.21-.502.314-.885.314s-.677-.104-.882-.314c-.205-.209-.308-.469-.308-.779s.104-.569.311-.779ZM1241.422,294.646h2.044v7.212h-2.044v-7.212Z"/>
          <path class="cls-6" d="M1246.184,297.92c.623-.4,1.403-.604,2.342-.608h1.395v-.403c0-.318-.083-.578-.25-.779-.166-.2-.459-.301-.878-.301-.424,0-.724.082-.899.246s-.263.367-.263.608v.103h-2.003v-.103c0-.651.302-1.188.906-1.609.604-.422,1.384-.633,2.341-.633.962,0,1.715.202,2.259.605.545.403.817,1.026.817,1.869v3.329c0,.292.027.57.082.834.055.265.125.488.212.67v.109h-1.996c-.055-.104-.104-.242-.146-.413-.044-.171-.072-.336-.086-.496-.137.27-.403.51-.8.722s-.889.317-1.477.317c-.702,0-1.292-.187-1.771-.561-.479-.373-.718-.938-.718-1.695,0-.807.312-1.41.933-1.812h0ZM1247.562,300.319c.183.196.474.294.875.294.429,0,.782-.135,1.063-.406.279-.271.42-.596.42-.975v-.684h-1.114c-.515,0-.896.087-1.146.26-.248.174-.372.422-.372.745,0,.314.091.57.273.766h0Z"/>
        </g>
        <g>
          <g>
            <path class="cls-6" d="M1174.204,302.406c-2.904.02-5.275-2.319-5.295-5.223s2.319-5.275,5.223-5.295c2.904-.02,5.275,2.319,5.295,5.223s-2.318,5.275-5.223,5.295Z"/>
            <path class="cls-8" d="M1174.095,286.513c-6.061.042-10.941,4.988-10.899,11.049.042,6.06,11.143,24.576,11.143,24.576,0,0,10.846-18.666,10.805-24.727-.042-6.061-4.989-10.94-11.049-10.899h0Z"/>
            <path class="cls-7" d="M1174.168,291.888c2.904,0,5.259,2.355,5.259,5.259s-2.355,5.259-5.259,5.259-5.259-2.355-5.259-5.259,2.355-5.259,5.259-5.259Z"/>
          </g>
          <path class="cls-5" d="M1174.095,286.513c-6.061.042-10.941,4.988-10.899,11.049s11.143,24.576,11.143,24.576c0,0,10.846-18.666,10.805-24.727-.042-6.061-4.989-10.94-11.049-10.899h0ZM1174.204,302.406c-2.904.02-5.275-2.319-5.295-5.223s2.319-5.275,5.223-5.295c2.904-.02,5.275,2.319,5.295,5.223s-2.318,5.275-5.223,5.295Z"/>
          <path class="cls-4" d="M1169.053,312.644c2.687,5.161,5.286,9.494,5.286,9.494,0,0,7.952-13.686,10.212-21.425-2.493,6.418-10.227,12.013-15.498,11.931Z"/>
        </g>
      </g>
    </g>
  </g>
</svg>