<?xml version="1.0" encoding="UTF-8"?>
<svg id="Layer_1" data-name="Layer 1" xmlns="http://www.w3.org/2000/svg" xmlns:xlink="http://www.w3.org/1999/xlink" version="1.1" viewBox="0 0 1840.953 768">
  <defs>
    <style>
      .cls-1 {
        fill: url(#linear-gradient);
      }

      .cls-1, .cls-2, .cls-3, .cls-4, .cls-5, .cls-6 {
        stroke-width: 0px;
      }

      .cls-7 {
        stroke: url(#linear-gradient-5);
      }

      .cls-7, .cls-8 {
        stroke-linecap: round;
        stroke-linejoin: round;
        stroke-width: 4.302px;
      }

      .cls-7, .cls-8, .cls-6 {
        fill: #fff;
      }

      .cls-8 {
        stroke: url(#linear-gradient-4);
      }

      .cls-2 {
        fill: url(#linear-gradient-2);
      }

      .cls-3 {
        fill: url(#linear-gradient-3);
      }

      .cls-4 {
        fill: url(#linear-gradient-7);
      }

      .cls-5 {
        fill: url(#linear-gradient-6);
      }

      .cls-9 {
        isolation: isolate;
      }
    </style>
    <linearGradient id="linear-gradient" x1="1534.671" y1="507.649" x2="1559.629" y2="535.368" gradientUnits="userSpaceOnUse">
      <stop offset="0" stop-color="#021" stop-opacity=".2"/>
      <stop offset=".559" stop-color="#000101" stop-opacity=".012"/>
      <stop offset="1" stop-color="#000" stop-opacity="0"/>
    </linearGradient>
    <linearGradient id="linear-gradient-2" x1="1536.451" y1="508.638" x2="1557.451" y2="531.961" gradientUnits="userSpaceOnUse">
      <stop offset="0" stop-color="#021" stop-opacity=".2"/>
      <stop offset="1" stop-color="#000" stop-opacity="0"/>
    </linearGradient>
    <linearGradient id="linear-gradient-3" x1="1451.711" y1="484.76" x2="1543.726" y2="484.76" gradientUnits="userSpaceOnUse">
      <stop offset="0" stop-color="#f5a84a"/>
      <stop offset="1" stop-color="#c74046"/>
    </linearGradient>
    <linearGradient id="linear-gradient-4" x1="1543.014" y1="504.898" x2="1524.659" y2="473.106" gradientUnits="userSpaceOnUse">
      <stop offset="0" stop-color="#505050"/>
      <stop offset="1" stop-color="#fff"/>
    </linearGradient>
    <linearGradient id="linear-gradient-5" x1="3088.331" y1="-8884.971" x2="3080.92" y2="-8897.807" gradientTransform="translate(4677.287 -8385.637) rotate(-179.607)" gradientUnits="userSpaceOnUse">
      <stop offset="0" stop-color="#4d4d4d"/>
      <stop offset="1" stop-color="#fff"/>
    </linearGradient>
    <linearGradient id="linear-gradient-6" x1="1519.422" y1="489.544" x2="1541.371" y2="489.544" gradientTransform="translate(-1.974 12.617) rotate(-.395)" xlink:href="#linear-gradient-3"/>
    <linearGradient id="linear-gradient-7" x1="1526.765" y1="503.637" x2="1542.692" y2="487.928" gradientTransform="translate(-1.974 12.617) rotate(-.395)" gradientUnits="userSpaceOnUse">
      <stop offset="0" stop-color="#fff" stop-opacity=".1"/>
      <stop offset="1" stop-color="#fff" stop-opacity="0"/>
    </linearGradient>
  </defs>
  <g class="cls-9">
    <g id="Layer_1-2" data-name="Layer 1-2">
      <g>
        <g>
          <path class="cls-1" d="M1565.838,522.996c-.83-2.564-2.803-4.787-5.313-6.403-2.72-1.752-6.031-2.56-9.315-3.281-3.462-.76-6.975-1.36-10.495-1.904-1.774-.274-3.552-.531-5.333-.771-1.366-.184-2.703-.406-3.991.157-1.709.747-1.147,2.068-.9,3.372.277,1.463.608,2.92.992,4.367.805,3.032,1.814,6.062,3.31,8.914.717,1.367,1.546,2.741,2.697,3.897,1.233,1.239,2.869,2.243,4.557,3.015,3.06,1.399,6.596,2.055,10.083,1.911,3.578-.148,7.15-1.152,9.869-3.127,2.703-1.964,4.365-4.803,4.262-7.805-.027-.792-.177-1.576-.421-2.341h-.002Z"/>
          <path class="cls-2" d="M1562.289,522.416c1.043,3.155-.568,6.389-3.704,8.284-3.049,1.842-7.116,2.325-10.759,1.69-3.846-.671-7.071-2.495-8.983-5.351-1.637-2.446-2.754-5.138-3.724-7.809-.838-2.308-2.172-7.278-2.202-7.409,3.918.463,7.825,1.136,11.691,1.835,2.2.398,4.394.827,6.562,1.335,2.119.497,4.35,1.013,6.202,2.03,2.316,1.272,4.176,3.15,4.916,5.394h0Z"/>
        </g>
        <g>
          <path class="cls-3" d="M1463.685,496.735c-6.603,0-11.974-5.372-11.974-11.975s5.371-11.974,11.974-11.974h68.067c6.603,0,11.974,5.371,11.974,11.974s-5.371,11.975-11.974,11.975h-68.067Z"/>
          <path class="cls-6" d="M1531.753,473.787c6.061,0,10.974,4.913,10.974,10.974h0c0,6.061-4.913,10.974-10.974,10.974h-68.067c-6.061,0-10.974-4.913-10.974-10.974h0c0-6.061,4.913-10.974,10.974-10.974h68.067M1531.753,471.787h-68.067c-7.154,0-12.974,5.82-12.974,12.974s5.82,12.974,12.974,12.974h68.067c7.154,0,12.974-5.82,12.974-12.974s-5.82-12.974-12.974-12.974h0Z"/>
        </g>
        <g>
          <path class="cls-6" d="M1471.894,479.179h3.344c1.334,0,2.455.409,3.359,1.228.904.817,1.357,1.963,1.357,3.435v.622c0,1.473-.453,2.618-1.357,3.438s-2.025,1.23-3.359,1.23h-3.344v-9.953ZM1475.203,487.566c.775,0,1.402-.258,1.885-.772.48-.515.721-1.276.721-2.283v-.711c0-1.007-.24-1.767-.721-2.28-.482-.512-1.109-.769-1.885-.769h-1.223v6.815h1.223Z"/>
          <path class="cls-6" d="M1481.801,481.92h2.037v4.471c0,.497.102.841.301,1.032.201.191.475.287.82.287.311,0,.588-.09.83-.271.244-.18.428-.404.551-.673v-4.847h2.031v7.212h-1.928l-.049-.807h-.033c-.211.292-.5.522-.869.694-.369.17-.779.256-1.23.256-.719,0-1.311-.227-1.77-.68-.461-.454-.691-1.211-.691-2.273v-4.402h0Z"/>
          <path class="cls-6" d="M1490.498,478.666h2.031v3.992c.227-.282.512-.5.85-.652.34-.153.734-.229,1.18-.229.93,0,1.668.336,2.211,1.009.545.672.818,1.546.818,2.621v.219c0,1.085-.273,1.963-.82,2.635-.547.673-1.285,1.009-2.215,1.009-.447,0-.861-.089-1.244-.267s-.65-.403-.801-.677h-.041l-.041.807h-1.928v-10.466h0ZM1493.058,487.416c.248.21.568.314.961.314.506,0,.881-.185,1.123-.554.244-.369.367-.85.367-1.442v-.417c0-.593-.121-1.073-.363-1.442-.24-.369-.621-.554-1.141-.554-.379,0-.693.104-.943.314-.252.21-.43.449-.533.718v2.338c.104.273.281.516.529.725h0Z"/>
          <path class="cls-6" d="M1499.894,485.194c.623-.401,1.404-.604,2.342-.608h1.395v-.403c0-.319-.082-.579-.25-.779-.166-.2-.459-.301-.877-.301-.424,0-.725.082-.9.246-.174.164-.262.367-.262.608v.103h-2.004v-.103c0-.651.303-1.188.906-1.609.604-.422,1.385-.633,2.342-.633s1.715.201,2.258.605c.545.402.818,1.026.818,1.869v3.329c0,.292.027.569.082.834s.125.487.211.67v.109h-1.996c-.055-.104-.104-.243-.146-.413-.043-.172-.072-.336-.086-.496-.137.27-.402.51-.799.721-.396.213-.889.318-1.477.318-.703,0-1.293-.187-1.771-.561-.479-.373-.717-.938-.717-1.695,0-.807.311-1.41.932-1.812h-.001ZM1501.273,487.594c.182.196.473.294.875.294.428,0,.781-.136,1.062-.407.279-.271.42-.596.42-.974v-.684h-1.113c-.516,0-.896.087-1.146.26-.248.173-.371.422-.371.745,0,.314.09.57.273.766Z"/>
          <path class="cls-6" d="M1507.99,479.145c.209-.209.504-.314.887-.314s.676.105.881.314c.205.21.309.47.309.779s-.104.57-.312.779c-.207.21-.502.314-.885.314s-.676-.104-.881-.314c-.205-.209-.309-.469-.309-.779s.104-.569.311-.779h0ZM1507.851,481.92h2.043v7.212h-2.043v-7.212Z"/>
        </g>
        <g>
          <g>
            <path class="cls-6" d="M1531.783,489.09c-2.904.02-5.275-2.319-5.295-5.223s2.319-5.275,5.223-5.295c2.904-.02,5.275,2.319,5.295,5.223s-2.318,5.275-5.223,5.295Z"/>
            <path class="cls-8" d="M1531.674,473.196c-6.061.042-10.941,4.988-10.899,11.049.042,6.06,11.143,24.576,11.143,24.576,0,0,10.846-18.666,10.805-24.727-.042-6.061-4.989-10.94-11.049-10.899h0Z"/>
            <path class="cls-7" d="M1531.746,479.126c2.904,0,5.259,2.355,5.259,5.259s-2.355,5.259-5.259,5.259-5.259-2.355-5.259-5.259,2.355-5.259,5.259-5.259Z"/>
          </g>
          <path class="cls-5" d="M1531.678,473.787c-6.061.042-10.941,4.988-10.899,11.049.042,6.06,11.143,24.576,11.143,24.576,0,0,10.846-18.666,10.805-24.727-.042-6.061-4.989-10.94-11.049-10.899h0ZM1531.787,489.68c-2.904.02-5.275-2.319-5.295-5.223s2.319-5.275,5.223-5.295c2.904-.02,5.275,2.319,5.295,5.223s-2.318,5.275-5.223,5.295Z"/>
          <path class="cls-4" d="M1526.636,499.918c2.687,5.161,5.286,9.494,5.286,9.494,0,0,7.952-13.686,10.212-21.425-2.494,6.418-10.227,12.013-15.498,11.931Z"/>
        </g>
      </g>
    </g>
  </g>
</svg>