<?xml version="1.0" encoding="UTF-8"?>
<svg id="Layer_1" data-name="Layer 1" xmlns="http://www.w3.org/2000/svg" xmlns:xlink="http://www.w3.org/1999/xlink" version="1.1" viewBox="0 0 1840.953 768">
  <defs>
    <style>
      .cls-1 {
        fill: url(#linear-gradient);
      }

      .cls-1, .cls-2, .cls-3, .cls-4, .cls-5, .cls-6 {
        stroke-width: 0px;
      }

      .cls-7 {
        stroke: url(#linear-gradient-2);
      }

      .cls-7, .cls-8 {
        stroke-linecap: round;
        stroke-linejoin: round;
        stroke-width: 4.302px;
      }

      .cls-7, .cls-8, .cls-6 {
        fill: #fff;
      }

      .cls-8 {
        stroke: url(#linear-gradient-3);
      }

      .cls-2 {
        fill: url(#linear-gradient-4);
      }

      .cls-3 {
        fill: url(#linear-gradient-7);
      }

      .cls-4 {
        fill: url(#linear-gradient-5);
      }

      .cls-5 {
        fill: url(#linear-gradient-6);
      }

      .cls-9 {
        isolation: isolate;
      }
    </style>
    <linearGradient id="linear-gradient" x1="2486.745" y1="9569.66" x2="2655.006" y2="9569.66" gradientTransform="translate(3157.443 -9021.628) rotate(-180) scale(1 -1)" gradientUnits="userSpaceOnUse">
      <stop offset="0" stop-color="#ff936f"/>
      <stop offset="1" stop-color="#cc0059"/>
    </linearGradient>
    <linearGradient id="linear-gradient-2" x1="525.673" y1="199.83" x2="507.318" y2="231.622" gradientTransform="translate(0 768) scale(1 -1)" gradientUnits="userSpaceOnUse">
      <stop offset="0" stop-color="#4d4d4d"/>
      <stop offset="1" stop-color="#fff"/>
    </linearGradient>
    <linearGradient id="linear-gradient-3" x1="2252.826" y1="9469.902" x2="2245.416" y2="9482.738" gradientTransform="translate(3260.571 -9158.495) rotate(-179.607) scale(1 -1)" gradientUnits="userSpaceOnUse">
      <stop offset="0" stop-color="#4d4d4d"/>
      <stop offset="1" stop-color="#fff"/>
    </linearGradient>
    <linearGradient id="linear-gradient-4" x1="501.691" y1="217.297" x2="523.639" y2="217.297" gradientTransform="translate(3.304 775.697) rotate(-.395) scale(1 -1)" gradientUnits="userSpaceOnUse">
      <stop offset="0" stop-color="#ff936f"/>
      <stop offset="1" stop-color="#cc0059"/>
    </linearGradient>
    <linearGradient id="linear-gradient-5" x1="508.996" y1="203.203" x2="524.923" y2="218.912" gradientTransform="translate(3.304 775.697) rotate(-.395) scale(1 -1)" gradientUnits="userSpaceOnUse">
      <stop offset="0" stop-color="#fff" stop-opacity=".2"/>
      <stop offset="1" stop-color="#fff" stop-opacity="0"/>
    </linearGradient>
    <linearGradient id="linear-gradient-6" x1="517.335" y1="196.489" x2="542.293" y2="168.77" gradientTransform="translate(0 768) scale(1 -1)" gradientUnits="userSpaceOnUse">
      <stop offset="0" stop-color="#021" stop-opacity=".2"/>
      <stop offset=".559" stop-color="#000101" stop-opacity=".012"/>
      <stop offset="1" stop-color="#000" stop-opacity="0"/>
    </linearGradient>
    <linearGradient id="linear-gradient-7" x1="519.116" y1="195.5" x2="540.115" y2="172.177" gradientTransform="translate(0 768) scale(1 -1)" gradientUnits="userSpaceOnUse">
      <stop offset="0" stop-color="#021" stop-opacity=".2"/>
      <stop offset="1" stop-color="#000" stop-opacity="0"/>
    </linearGradient>
  </defs>
  <g class="cls-9">
    <g id="cities">
      <g>
        <g>
          <path class="cls-1" d="M514.412,560.007c-6.603,0-11.975-5.372-11.975-11.975s5.372-11.975,11.975-11.975h144.312c6.603,0,11.974,5.372,11.974,11.975s-5.372,11.975-11.974,11.975h-144.312Z"/>
          <path class="cls-6" d="M658.724,537.058c6.061,0,10.974,4.913,10.974,10.974s-4.913,10.974-10.974,10.974h-144.312c-6.061,0-10.974-4.913-10.974-10.974s4.913-10.974,10.974-10.974h144.312M658.724,535.058h-144.312c-7.154,0-12.974,5.82-12.974,12.974s5.82,12.974,12.974,12.974h144.312c7.154,0,12.974-5.82,12.974-12.974s-5.82-12.974-12.974-12.974h0Z"/>
        </g>
        <g>
          <path class="cls-6" d="M536.425,542.45h3.794c1.157,0,2.049.278,2.673.834s.937,1.352.937,2.386-.311,1.828-.934,2.393c-.621.565-1.514.848-2.676.848h-1.695v3.493h-2.099v-9.953h0ZM540.027,547.345c.643,0,1.087-.147,1.333-.444.246-.296.369-.706.369-1.23,0-.52-.123-.924-.369-1.213-.246-.29-.69-.435-1.333-.435h-1.504v3.322h1.504Z"/>
          <path class="cls-6" d="M545.408,541.938h2.037v10.466h-2.037v-10.466Z"/>
          <path class="cls-6" d="M550.164,548.466c.623-.401,1.403-.604,2.342-.608h1.395v-.403c0-.319-.083-.579-.25-.779-.166-.2-.459-.301-.878-.301-.424,0-.724.082-.899.246s-.263.367-.263.608v.103h-2.003v-.103c0-.651.302-1.188.906-1.609.604-.422,1.384-.633,2.341-.633.962,0,1.715.201,2.259.605.545.402.817,1.026.817,1.869v3.329c0,.292.027.569.082.834s.125.487.212.67v.109h-1.996c-.055-.104-.104-.243-.146-.413-.044-.172-.072-.336-.086-.496-.137.27-.403.51-.8.721-.396.213-.889.318-1.477.318-.702,0-1.292-.187-1.771-.561-.479-.373-.718-.938-.718-1.695,0-.807.312-1.41.933-1.812h0ZM551.542,550.865c.183.196.474.294.875.294.429,0,.782-.136,1.063-.407.279-.271.42-.596.42-.974v-.684h-1.114c-.515,0-.896.087-1.146.26-.248.173-.372.422-.372.745,0,.314.091.57.273.766h.001Z"/>
          <path class="cls-6" d="M557.804,553.743c.114.036.24.065.38.085.139.021.271.031.399.031.31,0,.579-.097.807-.291.228-.193.426-.594.595-1.199h-.075l-2.796-7.178h2.058l1.463,4.19c.06.173.104.331.137.476.032.143.063.293.096.447h.041c.032-.154.065-.305.099-.447.035-.145.079-.303.134-.476l1.408-4.19h1.825l-2.96,8.066c-.255.697-.606,1.226-1.053,1.586-.446.359-.989.54-1.627.54-.205,0-.383-.011-.533-.03-.15-.021-.289-.059-.417-.113l.021-1.497h-.002Z"/>
          <path class="cls-6" d="M566.053,548.466c.623-.401,1.403-.604,2.342-.608h1.395v-.403c0-.319-.083-.579-.25-.779-.166-.2-.459-.301-.878-.301-.424,0-.724.082-.899.246s-.263.367-.263.608v.103h-2.003v-.103c0-.651.302-1.188.906-1.609.604-.422,1.384-.633,2.341-.633.962,0,1.715.201,2.259.605.545.402.817,1.026.817,1.869v3.329c0,.292.027.569.082.834s.125.487.212.67v.109h-1.996c-.055-.104-.104-.243-.146-.413-.044-.172-.072-.336-.086-.496-.137.27-.403.51-.8.721-.396.213-.889.318-1.477.318-.702,0-1.292-.187-1.771-.561-.479-.373-.718-.938-.718-1.695,0-.807.312-1.41.933-1.812h0ZM567.431,550.865c.183.196.474.294.875.294.429,0,.782-.136,1.063-.407.279-.271.42-.596.42-.974v-.684h-1.114c-.515,0-.896.087-1.146.26-.248.173-.372.422-.372.745,0,.314.091.57.273.766h.001Z"/>
          <path class="cls-6" d="M577.927,542.45h3.343c1.335,0,2.455.409,3.359,1.228.905.817,1.357,1.963,1.357,3.435v.622c0,1.473-.452,2.618-1.357,3.438-.904.82-2.024,1.23-3.359,1.23h-3.343v-9.953ZM581.235,550.838c.774,0,1.402-.258,1.884-.772.48-.515.721-1.276.721-2.283v-.711c0-1.007-.24-1.767-.721-2.28-.481-.512-1.109-.769-1.884-.769h-1.224v6.815h1.224Z"/>
          <path class="cls-6" d="M587.512,548.685c0-1.116.336-2.013,1.009-2.69.672-.676,1.529-1.015,2.573-1.015s1.872.317,2.472.954c.599.635.898,1.512.898,2.628v.731h-5.564v-1.265h3.555v-.157c0-.396-.118-.732-.355-1.008s-.574-.414-1.012-.414c-.506,0-.891.19-1.155.57-.265.381-.396.899-.396,1.556v.438c0,.638.143,1.146.427,1.524.285.379.706.567,1.262.567.383,0,.716-.096.998-.287s.511-.41.684-.656l1.429.937c-.228.438-.613.8-1.155,1.087s-1.183.431-1.921.431c-1.167,0-2.083-.34-2.748-1.019s-.998-1.577-.998-2.693v-.219h-.003Z"/>
          <path class="cls-6" d="M596.12,541.938h2.037v10.466h-2.037v-10.466Z"/>
          <path class="cls-6" d="M603.861,547.119c0-1.595.411-2.805,1.233-3.63.823-.825,1.896-1.237,3.217-1.237,1.253,0,2.247.328,2.98.984s1.101,1.497,1.101,2.522v.164h-2.119v-.191c0-.597-.164-1.058-.492-1.381s-.825-.485-1.49-.485c-.679,0-1.228.233-1.644.701-.418.467-.626,1.24-.626,2.32v1.08c0,.998.204,1.752.612,2.263.407.511.969.766,1.685.766.634,0,1.109-.172,1.429-.517.319-.344.494-.798.526-1.363v-.178h2.119v.178c-.046,1.012-.424,1.846-1.135,2.502s-1.693.984-2.946.984c-1.331,0-2.405-.416-3.223-1.248-.818-.831-1.228-2.037-1.228-3.619v-.615h.001Z"/>
          <path class="cls-6" d="M614.57,548.466c.623-.401,1.403-.604,2.342-.608h1.395v-.403c0-.319-.083-.579-.25-.779-.166-.2-.459-.301-.878-.301-.424,0-.724.082-.899.246s-.263.367-.263.608v.103h-2.003v-.103c0-.651.302-1.188.906-1.609.604-.422,1.384-.633,2.341-.633.962,0,1.715.201,2.259.605.545.402.817,1.026.817,1.869v3.329c0,.292.027.569.082.834s.125.487.212.67v.109h-1.996c-.055-.104-.104-.243-.146-.413-.044-.172-.072-.336-.086-.496-.137.27-.403.51-.8.721-.396.213-.889.318-1.477.318-.702,0-1.292-.187-1.771-.561-.479-.373-.718-.938-.718-1.695,0-.807.312-1.41.933-1.812h0ZM615.948,550.865c.183.196.474.294.875.294.429,0,.782-.136,1.063-.407.279-.271.42-.596.42-.974v-.684h-1.114c-.515,0-.896.087-1.146.26-.248.173-.372.422-.372.745,0,.314.091.57.273.766h.001Z"/>
          <path class="cls-6" d="M622.506,545.191h1.935l.048.786h.034c.142-.269.34-.5.595-.694.255-.193.542-.29.861-.29.091,0,.186.012.283.034.099.023.168.043.209.062v1.757c-.082-.018-.168-.033-.256-.045-.09-.011-.188-.017-.298-.017-.31,0-.588.093-.834.276-.246.186-.426.419-.54.701v4.642h-2.037v-7.212h0Z"/>
          <path class="cls-6" d="M627.934,545.191h1.928l.041.82h.041c.214-.31.5-.548.857-.715.358-.166.74-.249,1.146-.249.501,0,.938.106,1.31.317.371.213.644.523.816.934h.027c.241-.41.574-.721.998-.934.424-.211.868-.317,1.333-.317.725,0,1.31.228,1.753.684.445.456.667,1.215.667,2.276v4.396h-2.037v-4.519c0-.433-.089-.753-.267-.961-.178-.207-.442-.311-.793-.311-.306-.004-.573.078-.803.25-.23.17-.412.406-.544.707v4.833h-2.037v-4.498c0-.442-.09-.768-.271-.978-.18-.209-.449-.314-.81-.314-.306,0-.569.082-.793.246s-.401.401-.533.711v4.833h-2.03v-7.212h.001Z"/>
          <path class="cls-6" d="M640.528,548.685c0-1.116.336-2.013,1.009-2.69.672-.676,1.529-1.015,2.573-1.015s1.872.317,2.472.954c.599.635.898,1.512.898,2.628v.731h-5.564v-1.265h3.555v-.157c0-.396-.118-.732-.355-1.008s-.574-.414-1.012-.414c-.506,0-.891.19-1.155.57-.265.381-.396.899-.396,1.556v.438c0,.638.143,1.146.427,1.524.285.379.706.567,1.262.567.383,0,.716-.096.998-.287s.511-.41.684-.656l1.429.937c-.228.438-.613.8-1.155,1.087s-1.183.431-1.921.431c-1.167,0-2.083-.34-2.748-1.019s-.998-1.577-.998-2.693v-.219h-.003Z"/>
          <path class="cls-6" d="M649.122,545.191h1.928l.048.807h.034c.187-.277.464-.507.83-.688.367-.18.771-.27,1.214-.27.743,0,1.348.211,1.815.633.467.421.7,1.16.7,2.218v4.512h-2.03v-4.573c0-.451-.097-.767-.291-.947-.193-.18-.468-.27-.823-.27-.292,0-.563.083-.817.25-.252.166-.445.399-.577.7v4.84h-2.03v-7.212h0Z"/>
        </g>
        <g>
          <g>
            <path class="cls-6" d="M514.442,552.362c-2.904.02-5.275-2.319-5.295-5.223-.02-2.904,2.319-5.275,5.223-5.295,2.904-.02,5.275,2.319,5.295,5.223.02,2.904-2.318,5.275-5.223,5.295h0Z"/>
            <path class="cls-7" d="M514.333,536.468c-6.061.042-10.941,4.988-10.899,11.049.042,6.06,11.143,24.576,11.143,24.576,0,0,10.846-18.666,10.805-24.727-.042-6.061-4.989-10.94-11.049-10.899h0Z"/>
            <path class="cls-8" d="M514.406,542.434c2.904,0,5.259,2.355,5.259,5.259s-2.355,5.259-5.259,5.259-5.259-2.355-5.259-5.259,2.355-5.259,5.259-5.259Z"/>
          </g>
          <path class="cls-2" d="M514.337,537.058c-6.061.042-10.941,4.988-10.899,11.049.042,6.06,11.143,24.576,11.143,24.576,0,0,10.846-18.666,10.805-24.727-.042-6.061-4.989-10.94-11.049-10.899h0ZM514.446,552.952c-2.904.02-5.275-2.319-5.295-5.223-.02-2.904,2.319-5.275,5.223-5.295,2.904-.02,5.275,2.319,5.295,5.223.02,2.904-2.318,5.275-5.223,5.295h0Z"/>
          <path class="cls-4" d="M509.296,563.19c2.687,5.161,5.286,9.494,5.286,9.494,0,0,7.952-13.686,10.212-21.425-2.494,6.418-10.227,12.013-15.498,11.931h0Z"/>
        </g>
        <g>
          <path class="cls-5" d="M548.502,586.858c-.83-2.564-2.803-4.787-5.313-6.403-2.72-1.752-6.031-2.56-9.315-3.281-3.462-.76-6.975-1.36-10.495-1.904-1.774-.274-3.552-.531-5.333-.771-1.366-.184-2.703-.406-3.991.157-1.709.747-1.147,2.068-.9,3.372.277,1.463.608,2.92.992,4.367.805,3.032,1.814,6.062,3.31,8.914.717,1.367,1.546,2.741,2.697,3.897,1.233,1.239,2.869,2.243,4.557,3.015,3.06,1.399,6.596,2.055,10.083,1.911,3.578-.148,7.15-1.152,9.869-3.127,2.703-1.964,4.365-4.803,4.262-7.805-.027-.792-.177-1.576-.421-2.341h-.002Z"/>
          <path class="cls-3" d="M544.953,586.278c1.043,3.155-.568,6.389-3.704,8.284-3.049,1.842-7.116,2.325-10.759,1.69-3.846-.671-7.071-2.495-8.983-5.351-1.637-2.446-2.754-5.138-3.724-7.809-.838-2.308-2.172-7.278-2.202-7.409,3.918.463,7.825,1.136,11.691,1.835,2.2.398,4.394.827,6.562,1.335,2.119.497,4.35,1.013,6.202,2.03,2.316,1.272,4.176,3.15,4.916,5.394h0Z"/>
        </g>
      </g>
    </g>
  </g>
</svg>