<?xml version="1.0" encoding="UTF-8"?>
<svg id="Layer_1" data-name="Layer 1" xmlns="http://www.w3.org/2000/svg" xmlns:xlink="http://www.w3.org/1999/xlink" version="1.1" viewBox="0 0 1840.953 768">
  <defs>
    <style>
      .cls-1 {
        fill: url(#linear-gradient);
      }

      .cls-1, .cls-2, .cls-3, .cls-4, .cls-5, .cls-6 {
        stroke-width: 0px;
      }

      .cls-7 {
        stroke: url(#linear-gradient-5);
      }

      .cls-7, .cls-8 {
        stroke-linecap: round;
        stroke-linejoin: round;
        stroke-width: 4.302px;
      }

      .cls-7, .cls-8, .cls-6 {
        fill: #fff;
      }

      .cls-8 {
        stroke: url(#linear-gradient-4);
      }

      .cls-2 {
        fill: url(#linear-gradient-2);
      }

      .cls-3 {
        fill: url(#linear-gradient-3);
      }

      .cls-4 {
        fill: url(#linear-gradient-7);
      }

      .cls-5 {
        fill: url(#linear-gradient-6);
      }

      .cls-9 {
        isolation: isolate;
      }
    </style>
    <linearGradient id="linear-gradient" x1="1340.347" y1="422.955" x2="1365.305" y2="450.674" gradientUnits="userSpaceOnUse">
      <stop offset="0" stop-color="#021" stop-opacity=".2"/>
      <stop offset=".559" stop-color="#000101" stop-opacity=".012"/>
      <stop offset="1" stop-color="#000" stop-opacity="0"/>
    </linearGradient>
    <linearGradient id="linear-gradient-2" x1="1342.127" y1="423.945" x2="1363.128" y2="447.267" gradientUnits="userSpaceOnUse">
      <stop offset="0" stop-color="#021" stop-opacity=".2"/>
      <stop offset="1" stop-color="#000" stop-opacity="0"/>
    </linearGradient>
    <linearGradient id="linear-gradient-3" x1="1245.848" y1="399.476" x2="1349.399" y2="399.476" gradientUnits="userSpaceOnUse">
      <stop offset="0" stop-color="#23b4d1"/>
      <stop offset="1" stop-color="#004aa3"/>
    </linearGradient>
    <linearGradient id="linear-gradient-4" x1="1348.689" y1="420.204" x2="1330.334" y2="388.412" gradientUnits="userSpaceOnUse">
      <stop offset="0" stop-color="#4d4d4d"/>
      <stop offset="1" stop-color="#fff"/>
    </linearGradient>
    <linearGradient id="linear-gradient-5" x1="2335.246" y1="-8797.806" x2="2327.836" y2="-8810.642" gradientTransform="translate(3729.298 -8388.888) rotate(-179.607)" gradientUnits="userSpaceOnUse">
      <stop offset="0" stop-color="#4d4d4d"/>
      <stop offset="1" stop-color="#fff"/>
    </linearGradient>
    <linearGradient id="linear-gradient-6" x1="1325.679" y1="406.19" x2="1347.627" y2="406.19" gradientTransform="translate(-1.985 9.349) rotate(-.395)" gradientUnits="userSpaceOnUse">
      <stop offset="0" stop-color="#23b4d1"/>
      <stop offset="1" stop-color="#004aa3"/>
    </linearGradient>
    <linearGradient id="linear-gradient-7" x1="1333.017" y1="420.284" x2="1348.944" y2="404.575" gradientTransform="translate(-1.985 9.349) rotate(-.395)" gradientUnits="userSpaceOnUse">
      <stop offset="0" stop-color="#fff" stop-opacity=".2"/>
      <stop offset="1" stop-color="#fff" stop-opacity="0"/>
    </linearGradient>
  </defs>
  <g class="cls-9">
    <g id="cities">
      <g>
        <g>
          <path class="cls-1" d="M1371.514,438.302c-.83-2.564-2.803-4.787-5.313-6.403-2.72-1.752-6.031-2.56-9.315-3.281-3.462-.76-6.975-1.36-10.495-1.904-1.774-.274-3.552-.531-5.333-.771-1.366-.184-2.703-.406-3.991.157-1.709.747-1.147,2.068-.9,3.372.277,1.463.608,2.92.992,4.367.805,3.032,1.814,6.062,3.31,8.914.717,1.367,1.546,2.741,2.697,3.897,1.233,1.239,2.869,2.243,4.557,3.015,3.06,1.399,6.596,2.055,10.083,1.911,3.578-.148,7.15-1.152,9.869-3.127,2.703-1.964,4.365-4.803,4.262-7.805-.027-.792-.177-1.576-.421-2.341h-.002Z"/>
          <path class="cls-2" d="M1367.965,437.722c1.043,3.155-.568,6.389-3.704,8.284-3.049,1.842-7.116,2.325-10.759,1.69-3.846-.671-7.071-2.495-8.983-5.351-1.637-2.446-2.754-5.138-3.724-7.809-.838-2.308-2.172-7.278-2.202-7.409,3.918.463,7.825,1.136,11.691,1.835,2.2.398,4.394.827,6.562,1.335,2.119.497,4.35,1.013,6.202,2.03,2.316,1.272,4.176,3.15,4.916,5.394h0Z"/>
        </g>
        <g>
          <path class="cls-3" d="M1257.822,411.45c-6.603,0-11.974-5.371-11.974-11.974s5.371-11.975,11.974-11.975h79.602c6.603,0,11.975,5.372,11.975,11.975s-5.372,11.974-11.975,11.974h-79.602Z"/>
          <path class="cls-6" d="M1337.424,388.502c6.061,0,10.974,4.913,10.974,10.974h0c0,6.061-4.913,10.974-10.974,10.974h-79.602c-6.061,0-10.974-4.913-10.974-10.974h0c0-6.061,4.913-10.974,10.974-10.974h79.602M1337.424,386.502h-79.602c-7.154,0-12.974,5.82-12.974,12.974s5.82,12.974,12.974,12.974h79.602c7.154,0,12.974-5.82,12.974-12.974s-5.82-12.974-12.974-12.974h0Z"/>
        </g>
        <g>
          <path class="cls-6" d="M1264.376,393.895h8.019v1.593h-2.96v8.36h-2.099v-8.36h-2.96v-1.593h0Z"/>
          <path class="cls-6" d="M1272.566,400.129c0-1.116.336-2.014,1.009-2.689.672-.678,1.529-1.016,2.573-1.016s1.872.318,2.472.953c.599.637.898,1.513.898,2.629v.731h-5.564v-1.265h3.555v-.157c0-.396-.118-.732-.355-1.009-.237-.275-.574-.413-1.012-.413-.506,0-.891.19-1.155.571-.265.38-.396.898-.396,1.555v.438c0,.639.143,1.146.427,1.524.285.378.706.567,1.262.567.383,0,.716-.096.998-.287s.511-.41.684-.656l1.429.937c-.228.438-.613.8-1.155,1.087s-1.183.431-1.921.431c-1.167,0-2.083-.339-2.748-1.019-.665-.679-.998-1.576-.998-2.693v-.219h-.003,0Z"/>
          <path class="cls-6" d="M1281.175,393.382h2.037v10.466h-2.037v-10.466Z"/>
          <path class="cls-6" d="M1291.828,393.847h2.208l3.849,10.001h-2.256l-2.563-7.034c-.055-.155-.098-.303-.13-.444s-.062-.282-.089-.424h-.062c-.022.142-.052.283-.085.428-.035.143-.079.29-.134.44l-2.563,7.034h-1.955l3.78-10.001h0ZM1290.686,400.095h4.396l.485,1.559h-5.366l.485-1.559Z"/>
          <path class="cls-6" d="M1299.677,396.636l1.483,4.231c.06.174.104.33.134.472.029.142.053.278.071.41h.041c.019-.132.043-.268.075-.407s.075-.297.13-.475l1.477-4.231h1.832l-2.734,7.212h-1.832l-2.734-7.212h2.058-.001Z"/>
          <path class="cls-6" d="M1306.216,393.86c.208-.21.503-.314.886-.314s.677.104.882.314.308.47.308.779-.104.569-.312.779c-.207.21-.502.314-.885.314s-.677-.104-.882-.314-.308-.47-.308-.779.104-.569.311-.779ZM1306.076,396.636h2.044v7.212h-2.044v-7.212Z"/>
          <path class="cls-6" d="M1311.335,396.636l1.483,4.231c.06.174.104.33.134.472.029.142.053.278.071.41h.041c.019-.132.043-.268.075-.407s.075-.297.13-.475l1.477-4.231h1.832l-2.734,7.212h-1.832l-2.734-7.212h2.058-.001Z"/>
        </g>
        <g>
          <g>
            <path class="cls-6" d="M1337.458,404.396c-2.904.02-5.275-2.319-5.295-5.223s2.319-5.275,5.223-5.295c2.904-.02,5.275,2.319,5.295,5.223s-2.318,5.275-5.223,5.295Z"/>
            <path class="cls-8" d="M1337.349,388.502c-6.061.042-10.941,4.988-10.899,11.049.042,6.06,11.143,24.576,11.143,24.576,0,0,10.846-18.666,10.805-24.727-.042-6.061-4.989-10.94-11.049-10.899h0Z"/>
            <path class="cls-7" d="M1337.422,393.878c2.904,0,5.259,2.355,5.259,5.259s-2.355,5.259-5.259,5.259-5.259-2.355-5.259-5.259,2.355-5.259,5.259-5.259Z"/>
          </g>
          <path class="cls-5" d="M1337.349,388.502c-6.061.042-10.941,4.988-10.899,11.049.042,6.06,11.143,24.576,11.143,24.576,0,0,10.846-18.666,10.805-24.727-.042-6.061-4.989-10.94-11.049-10.899h0ZM1337.458,404.396c-2.904.02-5.275-2.319-5.295-5.223s2.319-5.275,5.223-5.295c2.904-.02,5.275,2.319,5.295,5.223s-2.318,5.275-5.223,5.295Z"/>
          <path class="cls-4" d="M1332.307,414.634c2.687,5.161,5.286,9.494,5.286,9.494,0,0,7.952-13.686,10.212-21.425-2.494,6.418-10.227,12.013-15.498,11.931Z"/>
        </g>
      </g>
    </g>
  </g>
</svg>